<?xml version="1.0" encoding="UTF-8" standalone="no"?>
<svg
   xmlns:dc="http://purl.org/dc/elements/1.1/"
   xmlns:cc="http://creativecommons.org/ns#"
   xmlns:rdf="http://www.w3.org/1999/02/22-rdf-syntax-ns#"
   xmlns:svg="http://www.w3.org/2000/svg"
   xmlns="http://www.w3.org/2000/svg"
   xmlns:sodipodi="http://sodipodi.sourceforge.net/DTD/sodipodi-0.dtd"
   xmlns:inkscape="http://www.inkscape.org/namespaces/inkscape"
   viewBox="0 0 310.95 194.42"
   version="1.1"
   id="svg947"
   sodipodi:docname="aws cloud white.svg"
   inkscape:version="0.92.4 (5da689c313, 2019-01-14)">
  <metadata
     id="metadata951">
    <rdf:RDF>
      <cc:Work
         rdf:about="">
        <dc:format>image/svg+xml</dc:format>
        <dc:type
           rdf:resource="http://purl.org/dc/dcmitype/StillImage" />
        <dc:title>amazon</dc:title>
      </cc:Work>
    </rdf:RDF>
  </metadata>
  <sodipodi:namedview
     pagecolor="#ffffff"
     bordercolor="#666666"
     borderopacity="1"
     objecttolerance="10"
     gridtolerance="10"
     guidetolerance="10"
     inkscape:pageopacity="0"
     inkscape:pageshadow="2"
     inkscape:window-width="3840"
     inkscape:window-height="2004"
     id="namedview949"
     showgrid="false"
     inkscape:zoom="4.8554676"
     inkscape:cx="166.83178"
     inkscape:cy="64.494586"
     inkscape:window-x="-16"
     inkscape:window-y="-16"
     inkscape:window-maximized="1"
     inkscape:current-layer="svg947" />
  <defs
     id="defs905">
    <style
       id="style903">.cls-1{fill:#32343a;}</style>
  </defs>
  <title
     id="title907">amazon</title>
  <g
     id="Layer_2"
     data-name="Layer 2"
     style="fill:#ffffff">
    <g
       id="Layer_1-2"
       data-name="Layer 1"
       style="fill:#ffffff">
      <path
         class="cls-1"
         d="M210.5,94.11a22.12,22.12,0,0,1,20.22,0,1,1,0,0,0,1.41-1V88.54a2,2,0,0,0-1-1.66A21.16,21.16,0,0,0,220,84.55L230.1,70.27a6.06,6.06,0,0,0,1.44-2.7V63.88a1.07,1.07,0,0,0-1.07-1.07H211.31a1.07,1.07,0,0,0-1.07,1.07v4.28a1.07,1.07,0,0,0,1.07,1.08h10L209.87,85.69a5.2,5.2,0,0,0-.7,3V93C209.13,93.74,209.84,94.44,210.5,94.11Z"
         id="path909"
         style="fill:#ffffff" />
      <path
         class="cls-1"
         d="M164.59,72.45a37.52,37.52,0,0,1,0,5.61V93.89a1.11,1.11,0,0,0,1,1.07h5.83a1.11,1.11,0,0,0,1.11-1.07V75a16,16,0,0,0-1.47-9.37,8.6,8.6,0,0,0-14.77,2.25,8,8,0,0,0-15.2,0h0V64a1.11,1.11,0,0,0-1.07-1h-5.43a1.1,1.1,0,0,0-1.1,1.07V94a1.09,1.09,0,0,0,1,1h5.83a1.1,1.1,0,0,0,1.11-1.07V78.06c0-3.47,0-8.23,4-8.23s3.69,4.9,3.69,8.23V93.89a1.11,1.11,0,0,0,1,1.07h5.83a1.11,1.11,0,0,0,1.11-1.07V78.06a18.05,18.05,0,0,1,.56-5.72,3.67,3.67,0,0,1,3.46-2.44A3,3,0,0,1,164.59,72.45Z"
         id="path911"
         style="fill:#ffffff" />
      <path
         class="cls-1"
         d="M248,95.59c8.16,0,13.32-7.39,13.32-16.35S256.67,62.37,248,62.37s-13.1,7.38-13.1,16.53S239.54,95.59,248,95.59Zm0-27.09a3.67,3.67,0,0,1,3.69,2.88,27.53,27.53,0,0,1,.89,7.93c0,3.69-.22,10.11-4.73,10.11s-4.5-7.78-4.5-11.44.41-9.48,4.69-9.48Z"
         id="path913"
         style="fill:#ffffff" />
      <path
         class="cls-1"
         d="M273.68,93.89V77.65A13.31,13.31,0,0,1,274.6,72,3.7,3.7,0,0,1,278,69.6c4,0,3.69,4.8,3.69,8.05V93.89a1.12,1.12,0,0,0,1,1h5.83a1.11,1.11,0,0,0,1.1-1V75.07a18.89,18.89,0,0,0-1.51-9.3,7.63,7.63,0,0,0-6.79-3.69,7.92,7.92,0,0,0-7.93,6h0V63.85a1.11,1.11,0,0,0-1-.85H267a1.1,1.1,0,0,0-1.11,1V93.85a1.11,1.11,0,0,0,1,1.07h5.79A1.1,1.1,0,0,0,273.68,93.89Z"
         id="path915"
         style="fill:#ffffff" />
      <path
         class="cls-1"
         d="M195,74.77a40.51,40.51,0,0,0-11.07,2,9.88,9.88,0,0,0-6.2,9.52,8.26,8.26,0,0,0,7.4,9.05,7.15,7.15,0,0,0,1.31,0A11.52,11.52,0,0,0,196,91.16,14.48,14.48,0,0,0,199.39,95a1.22,1.22,0,0,0,1.37,0h0a57.3,57.3,0,0,1,4.46-3.69,1.11,1.11,0,0,0,0-1.55,8,8,0,0,1-2.17-5.39V75c0-3.69.25-7.38-2.55-10a13.2,13.2,0,0,0-8.78-2.92c-5.54,0-11.74,2.07-13,8.9a1,1,0,0,0,.82,1.2h.06l5.65.59a1.21,1.21,0,0,0,1-1.07,4.43,4.43,0,0,1,4.69-3.5,3.69,3.69,0,0,1,3.28,1.51,7.38,7.38,0,0,1,.71,4.21Zm-1.07,12.11a4.72,4.72,0,0,1-4,2.65c-2.25,0-3.69-1.69-3.69-4.2,0-5,4.42-5.87,8.67-5.87v1.25a11.41,11.41,0,0,1-1,6.17Z"
         id="path917"
         style="fill:#ffffff" />
      <path
         class="cls-1"
         d="M123.07,95a1.22,1.22,0,0,0,1.37,0h0a57.3,57.3,0,0,1,4.46-3.69,1.11,1.11,0,0,0,0-1.55,8,8,0,0,1-2.17-5.39V75c0-3.69.25-7.38-2.55-10a13.2,13.2,0,0,0-8.78-2.92c-5.54,0-11.74,2.07-13,8.9a1,1,0,0,0,.82,1.2h.06l5.65.59a1.22,1.22,0,0,0,1-1.07,4.41,4.41,0,0,1,4.68-3.5,3.89,3.89,0,0,1,3.29,1.51,7.45,7.45,0,0,1,.7,4.21v.74a40.14,40.14,0,0,0-11.07,2,9.88,9.88,0,0,0-6.2,9.52,8.26,8.26,0,0,0,7.4,9,9.52,9.52,0,0,0,1.31,0,11.5,11.5,0,0,0,9.59-4.25A14.42,14.42,0,0,0,123.07,95Zm-5.57-8.15a4.72,4.72,0,0,1-4,2.65c-2.25,0-3.69-1.69-3.69-4.2,0-5,4.46-5.87,8.67-5.87v1.25a11.47,11.47,0,0,1-.89,6.17Z"
         id="path919"
         style="fill:#ffffff" />
      <path
         class="cls-1"
         d="M112.66,117.1a9.4,9.4,0,0,1,5.58,2.69s.22,0,.33-.33l1.22-2.21v-.41a10.43,10.43,0,0,0-7.38-3.25c-6.46,0-10.67,5.36-10.67,14.14,0,7.68,3.69,12.55,9.89,12.55a13.53,13.53,0,0,0,8.3-2.73v-.41l-.88-2.21a.33.33,0,0,0-.33-.34A14.43,14.43,0,0,1,112,136.7c-5.09,0-6-5.06-6-9.82C106,120.94,107.53,117.1,112.66,117.1Z"
         id="path921"
         style="fill:#ffffff" />
      <path
         class="cls-1"
         d="M129.9,140.39c2,0,4.46-.74,4.46-1.33a.77.77,0,0,0,0-.37l-.66-2a.34.34,0,0,0-.37-.33,9.88,9.88,0,0,1-2.73.7,2.09,2.09,0,0,1-2.1-1.84v-33c0-.26,0-.71-.37-.71h-.63l-2.62.63c-.22,0-.37.26-.37.63v27.27a26.61,26.61,0,0,0,.74,7.6A5,5,0,0,0,129.9,140.39Z"
         id="path923"
         style="fill:#ffffff" />
      <path
         class="cls-1"
         d="M180.5,133V114.26c0-.26,0-.7-.37-.7h-.63l-2.62.63c-.22,0-.37.25-.37.62v19.12a13,13,0,0,1-6,2.69,3.69,3.69,0,0,1-4.31-2.94,3.78,3.78,0,0,1,0-1.3V114.26c0-.26,0-.7-.37-.7h-.62l-2.62.63c-.22,0-.37.25-.37.62v17.46c0,3.69.59,7.9,7.67,7.9a12.58,12.58,0,0,0,7.39-3.1c.59,1.21,1.14,3.1,2,3.1a1.41,1.41,0,0,0,.41,0l2.06-1.26a.51.51,0,0,0,.48-.4,11.28,11.28,0,0,0-1-2A7.57,7.57,0,0,1,180.5,133Z"
         id="path925"
         style="fill:#ffffff" />
      <path
         class="cls-1"
         d="M204.71,131.2v-29c0-.25,0-.7-.41-.7h-.63l-2.58.63c-.22,0-.37.26-.37.63v12.51a11.09,11.09,0,0,0-6.46-1.77c-6.09,0-8.78,6.31-8.78,13.87,0,6.54,2.58,12.81,8.19,12.81a12.66,12.66,0,0,0,7.71-3.1c.23.85,1.15,3.1,1.89,3.1a.9.9,0,0,0,.4,0l2.07-1.26a.52.52,0,0,0,.48-.4,16.15,16.15,0,0,0-1-2A13.25,13.25,0,0,1,204.71,131.2Zm-4,2.4a12.3,12.3,0,0,1-6.31,3.1c-4.24,0-4.61-5-4.61-9.41,0-5.1.4-10.26,4.94-10.26a11.61,11.61,0,0,1,6,1.73Z"
         id="path927"
         style="fill:#ffffff" />
      <path
         class="cls-1"
         d="M220.83,101.49c-6.49,0-7.38,4.8-7.38,8.71v4.1h-3.69c-.37,0-.37.25-.37.62v2c0,.25,0,.62.37.62h3.69v21.33a.56.56,0,0,0,.47.63h2.89a.55.55,0,0,0,.63-.47.43.43,0,0,0,0-.16V117.54h6.71a.72.72,0,0,0,.71-.48l.7-2.06v-.37a.62.62,0,0,0-.59-.37h-7.38V110.2c0-3.06.22-5.24,3.13-5.24a22.51,22.51,0,0,1,4.58,1.11.42.42,0,0,0,.37-.34l.74-1.73a6.44,6.44,0,0,0,.25-.74C226.63,102.52,223.27,101.49,220.83,101.49Z"
         id="path929"
         style="fill:#ffffff" />
      <path
         class="cls-1"
         d="M241.17,113.56c-3.07,0-4.95,3-6.31,4.43-.22-1.15-1.11-4.43-2.07-4.43a1.16,1.16,0,0,0-.52.26l-2,1.21a.71.71,0,0,0-.37.52,3.79,3.79,0,0,0,.59,1.33,8.74,8.74,0,0,1,.88,4v18a.56.56,0,0,0,.47.63h2.89a.54.54,0,0,0,.63-.47.43.43,0,0,0,0-.16v-17.3c1.26-1.37,3.1-4.1,5-4.1a5.25,5.25,0,0,1,1.73.48c.22,0,.26-.26.33-.37l1.15-2.69a2.81,2.81,0,0,0,0-.41C243.75,114,242.39,113.56,241.17,113.56Z"
         id="path931"
         style="fill:#ffffff" />
      <path
         class="cls-1"
         d="M255.93,113.56c-7.6,0-10.67,6.2-10.67,13.43s3.29,13.4,10.3,13.4c7.68,0,10.78-6.17,10.78-13.51S263.31,113.56,255.93,113.56Zm0,23.43c-4.83,0-6.2-4.46-6.2-10.44,0-5.21,1.4-9.71,6.16-9.71s6.17,4.73,6.17,9.89C262,132.75,260.58,137,255.93,137Z"
         id="path933"
         style="fill:#ffffff" />
      <path
         class="cls-1"
         d="M283.72,113.56a13.33,13.33,0,0,0-8.45,3.69c0-.41-.7-3.69-1.63-3.69,0,0-.33,0-.4.22l-2.36,1.33c-.23,0-.26.26-.26.37a21.89,21.89,0,0,1,.85,2.21,11.13,11.13,0,0,1,.22,3.1v18.12a.55.55,0,0,0,.47.63.43.43,0,0,0,.16,0h2.73a.55.55,0,0,0,.62-.47.43.43,0,0,0,0-.16V120.46a10.27,10.27,0,0,1,6.94-3.21c2.84,0,3.43,2,3.43,4.24V139a.56.56,0,0,0,.47.63h2.89a.56.56,0,0,0,.63-.47.43.43,0,0,0,0-.16V121.46C290,117.65,289.55,113.56,283.72,113.56Z"
         id="path935"
         style="fill:#ffffff" />
      <path
         class="cls-1"
         d="M310.81,137.58l-.59-2a.38.38,0,0,0-.37-.34,15.72,15.72,0,0,1-5.06,1.41c-3.14,0-3.14-2.14-3.14-4.25V117.69h6.94a.72.72,0,0,0,.7-.48l.71-2.07v-.36a.63.63,0,0,0-.6-.37h-7.71v-8.2c0-.33,0-.59-.26-.59h-.37l-2.76.78a.61.61,0,0,0-.59.63v7.19h-3.95c-.37,0-.37.26-.37.63v2c0,.26,0,.63.37.63h3.95v14.76a8.32,8.32,0,0,0,1.51,5.94,6.49,6.49,0,0,0,4.94,1.85c2.85,0,6.79-1.48,6.79-2.14C310.91,137.78,310.86,137.68,310.81,137.58Z"
         id="path937"
         style="fill:#ffffff" />
      <path
         class="cls-1"
         d="M146.36,113.56c-7.6,0-10.67,6.2-10.67,13.43s2.66,12.44,8.75,13.14c0,14-2.18,20.52-18.45,26.87a7.38,7.38,0,0,0-13.58,1.69c-19.27-2.73-31.19-13.5-35.62-23.25a7.54,7.54,0,0,0-7.19-13.25c-7.94-14-3.69-43.32,2.25-59.93a7.38,7.38,0,0,0,6.27-13.14A48,48,0,0,1,131,38.57v.7a7.38,7.38,0,1,0,7.28-7.48,6.94,6.94,0,0,0-1.11.1,63.17,63.17,0,0,0-34.44-28A61.57,61.57,0,0,0,53.4,6.72,7.38,7.38,0,0,0,40.66,14.1c-19,12.18-25.83,31.7-22.14,63.25a7.4,7.4,0,0,0-4.58,9.39,7.71,7.71,0,0,0,.45,1A52.59,52.59,0,0,0,.18,123a65.79,65.79,0,0,0,12.18,43.25,7.38,7.38,0,0,0,10,10.67,60,60,0,0,0,40.19,17.53h3.69a78.72,78.72,0,0,0,49-17.13,7.38,7.38,0,0,0,11.85-6.16,6.61,6.61,0,0,0,0-.89c17-6.64,20.45-14.2,20.63-30,6.31-.92,8.9-6.64,8.9-13.36C156.58,119.35,153.56,113.56,146.36,113.56Zm-79.2,20.85a7.64,7.64,0,0,0-1,1.84A58.06,58.06,0,0,1,33.8,117.8,44.88,44.88,0,0,1,22.73,92a7.38,7.38,0,0,0,3.43-12.92A39.86,39.86,0,0,1,45.94,64.59a34.07,34.07,0,0,1,19.89-.82,7.37,7.37,0,0,0,3,7.38c-6.16,17.09-10.74,48.13-1.74,63.26ZM55.06,9.67A58.43,58.43,0,0,1,101.7,7.05a59.82,59.82,0,0,1,32.44,26.31A7.59,7.59,0,0,0,132,35.73a57,57,0,0,0-30.07,1,47.11,47.11,0,0,0-26.83,21h-.26a58.54,58.54,0,0,0-4-15.79A81.45,81.45,0,0,0,54.24,16.17a7.41,7.41,0,0,0,.82-6.31ZM42.29,17.05A7.37,7.37,0,0,0,52,18.38,70.13,70.13,0,0,1,71.4,57.57a7.38,7.38,0,0,0-4.46,3,37.25,37.25,0,0,0-22.14.74,43.27,43.27,0,0,0-21.37,16A7.18,7.18,0,0,0,21.84,77c-3.69-30.34,2.51-48.5,20.41-60Zm20.44,174.3a57.18,57.18,0,0,1-37.94-16.46,7.39,7.39,0,1,0-10.11-10.77A62.75,62.75,0,0,1,3.39,123.26a49.54,49.54,0,0,1,13-32.84,7.39,7.39,0,0,0,3,1.44,48,48,0,0,0,11.92,28.05A61.48,61.48,0,0,0,65.72,139.5a7.38,7.38,0,0,0,7.38,6.9h.33c4.69,11.07,17.42,22.77,38.57,25.65a7.55,7.55,0,0,0,.92,2.73,76.21,76.21,0,0,1-50.19,16.5Zm83.48-54.28c-4.83,0-6.2-4.47-6.2-10.45,0-5.2,1.4-9.7,6.16-9.7s6.17,4.72,6.17,9.89c0,5.94-1.48,10.18-6.17,10.18Z"
         id="path939"
         style="fill:#ffffff" />
      <path
         class="cls-1"
         d="M295.82,66.17h.71l.51,1.29h.63l-.59-1.36a.77.77,0,0,0,.55-.78c0-.92-.7-1-1.29-1h-1.07v3.17h.59Zm0-1.36h.71c.33,0,.55,0,.55.44s-.22.41-.48.41h-.7Z"
         id="path941"
         style="fill:#ffffff" />
      <path
         class="cls-1"
         d="M296.53,69a3,3,0,1,0-3-3,3,3,0,0,0,3,3Zm0-5.61A2.58,2.58,0,1,1,293.94,66h0a2.59,2.59,0,0,1,2.59-2.55Z"
         id="path943"
         style="fill:#ffffff" />
    </g>
  </g>
</svg>
