<?xml version="1.0" encoding="UTF-8" standalone="no"?>
<!-- Created with Inkscape (http://www.inkscape.org/) -->

<svg
   xmlns:dc="http://purl.org/dc/elements/1.1/"
   xmlns:cc="http://creativecommons.org/ns#"
   xmlns:rdf="http://www.w3.org/1999/02/22-rdf-syntax-ns#"
   xmlns:svg="http://www.w3.org/2000/svg"
   xmlns="http://www.w3.org/2000/svg"
   xmlns:sodipodi="http://sodipodi.sourceforge.net/DTD/sodipodi-0.dtd"
   xmlns:inkscape="http://www.inkscape.org/namespaces/inkscape"
   width="800"
   height="300"
   viewBox="0 0 211.66667 79.374998"
   version="1.1"
   id="svg1051"
   inkscape:version="0.92.4 (5da689c313, 2019-01-14)"
   sodipodi:docname="dwd new logo blue with shadow.svg">
  <defs
     id="defs1045">
    <filter
       style="color-interpolation-filters:sRGB"
       inkscape:label="Drop Shadow"
       id="filter1957-3">
      <feFlood
         flood-opacity="1"
         flood-color="rgb(125,125,125)"
         result="flood"
         id="feFlood1947-2" />
      <feComposite
         in="flood"
         in2="SourceGraphic"
         operator="in"
         result="composite1"
         id="feComposite1949-6" />
      <feGaussianBlur
         in="composite1"
         stdDeviation="0"
         result="blur"
         id="feGaussianBlur1951-6" />
      <feOffset
         dx="3"
         dy="2"
         result="offset"
         id="feOffset1953-3" />
      <feComposite
         in="SourceGraphic"
         in2="offset"
         operator="over"
         result="composite2"
         id="feComposite1955-2" />
    </filter>
  </defs>
  <sodipodi:namedview
     id="base"
     pagecolor="#ffffff"
     bordercolor="#666666"
     borderopacity="1.0"
     inkscape:pageopacity="0.0"
     inkscape:pageshadow="2"
     inkscape:zoom="2.8"
     inkscape:cx="350.52662"
     inkscape:cy="235.01604"
     inkscape:document-units="mm"
     inkscape:current-layer="layer1"
     showgrid="false"
     units="px"
     inkscape:window-width="3840"
     inkscape:window-height="2004"
     inkscape:window-x="-16"
     inkscape:window-y="-16"
     inkscape:window-maximized="1" />
  <metadata
     id="metadata1048">
    <rdf:RDF>
      <cc:Work
         rdf:about="">
        <dc:format>image/svg+xml</dc:format>
        <dc:type
           rdf:resource="http://purl.org/dc/dcmitype/StillImage" />
        <dc:title></dc:title>
      </cc:Work>
    </rdf:RDF>
  </metadata>
  <g
     inkscape:label="Layer 1"
     inkscape:groupmode="layer"
     id="layer1"
     transform="translate(0,-217.625)">
    <g
       id="g1511-3-7"
       transform="matrix(1.0918583,0,-0.2130689,1.0918583,-1.5638325,186.57165)"
       style="filter:url(#filter1957-3)">
      <path
         style="fill:#2c2ca0;fill-opacity:1;stroke:#0093b8;stroke-width:0;stroke-linecap:butt;stroke-linejoin:round;stroke-miterlimit:4;stroke-dasharray:none;stroke-opacity:1;paint-order:normal"
         d="m 28.75821,46.524498 h 164.30647 c 4.63313,0 8.36305,2.765283 8.36305,6.200186 v 36.890437 c 0,3.434904 -3.72992,6.200187 -8.36305,6.200187 H 28.75821 c -4.633127,0 -8.363046,-2.765283 -8.363046,-6.200187 V 52.724684 c 0,-3.434903 3.729919,-6.200186 8.363046,-6.200186 z"
         id="rect4562-4-08-4"
         inkscape:connector-curvature="0" />
      <g
         aria-label="Dragan"
         style="font-style:normal;font-weight:normal;font-size:37.95885086px;line-height:1.25;font-family:sans-serif;letter-spacing:0px;word-spacing:0px;fill:#ffffff;fill-opacity:1;stroke:#2c2ca0;stroke-width:3;stroke-linecap:butt;stroke-linejoin:round;stroke-miterlimit:4;stroke-dasharray:none;stroke-opacity:1;paint-order:stroke fill markers"
         id="text3715-1-3-7">
        <path
           d="M 44.08352,60.751671 H 31.291377 q -0.721219,0 -1.062849,-0.303671 -0.303671,-0.34163 -0.303671,-1.062849 V 34.787796 q 0,-0.721219 0.303671,-1.02489 0.34163,-0.34163 1.062849,-0.34163 H 44.08352 q 4.74486,0 7.022393,1.897944 2.315492,1.897944 2.315492,5.845668 v 11.843171 q 0,3.947724 -2.315492,5.845668 -2.277533,1.897944 -7.022393,1.897944 z M 38.541523,40.671423 v 12.906019 h 4.517107 q 0.911014,0 1.328561,-0.455506 0.455507,-0.455507 0.455507,-1.404479 v -9.224008 q 0,-0.948972 -0.455507,-1.36652 -0.417547,-0.455506 -1.328561,-0.455506 z"
           style="font-style:normal;font-variant:normal;font-weight:normal;font-stretch:normal;font-size:37.95888138px;font-family:Bungee;-inkscape-font-specification:'Bungee, Normal';font-variant-ligatures:normal;font-variant-caps:normal;font-variant-numeric:normal;font-feature-settings:normal;text-align:start;writing-mode:lr-tb;text-anchor:start;fill:#ffffff;stroke:#2c2ca0;stroke-width:3;stroke-linecap:butt;stroke-linejoin:round;stroke-miterlimit:4;stroke-dasharray:none;stroke-opacity:1;paint-order:stroke fill markers"
           id="path1514-8-8"
           inkscape:connector-curvature="0" />
        <path
           d="m 66.824449,40.253875 v 4.858737 h 2.846916 q 0.986931,0 1.328561,-0.493466 0.34163,-0.531424 0.34163,-1.290602 v -1.290602 q 0,-0.759177 -0.34163,-1.252643 -0.34163,-0.531424 -1.328561,-0.531424 z M 65.45793,60.751671 h -5.845668 q -0.721219,0 -1.062849,-0.303671 -0.303671,-0.34163 -0.303671,-1.062849 V 34.787796 q 0,-0.721219 0.303671,-1.02489 0.34163,-0.34163 1.062849,-0.34163 h 12.640307 q 4.251395,0 5.845668,1.784068 1.632232,1.746108 1.632232,4.555065 v 1.746109 q 0,1.594273 -0.493465,2.733039 -0.455507,1.100808 -1.632232,1.594273 2.049779,0.227754 3.302422,1.670191 1.290602,1.442438 1.290602,3.833847 v 8.047283 q 0,0.721219 -0.34163,1.062849 -0.303671,0.303671 -1.024889,0.303671 H 74.94765 q -0.721219,0 -1.062849,-0.303671 -0.303671,-0.34163 -0.303671,-1.062849 v -5.807709 q 0,-0.835095 -0.34163,-1.214684 -0.303671,-0.417548 -1.100807,-0.417548 h -5.314244 v 7.439941 q 0,0.721219 -0.34163,1.062849 -0.303671,0.303671 -1.024889,0.303671 z"
           style="font-style:normal;font-variant:normal;font-weight:normal;font-stretch:normal;font-size:37.95888138px;font-family:Bungee;-inkscape-font-specification:'Bungee, Normal';font-variant-ligatures:normal;font-variant-caps:normal;font-variant-numeric:normal;font-feature-settings:normal;text-align:start;writing-mode:lr-tb;text-anchor:start;fill:#ffffff;stroke:#2c2ca0;stroke-width:3;stroke-linecap:butt;stroke-linejoin:round;stroke-miterlimit:4;stroke-dasharray:none;stroke-opacity:1;paint-order:stroke fill markers"
           id="path1516-0-7"
           inkscape:connector-curvature="0" />
        <path
           d="m 96.325618,41.392641 -1.784068,5.76975 h 5.95954 l -1.784063,-5.76975 q -0.151835,-0.34163 -0.34163,-0.493465 -0.151835,-0.151836 -0.379589,-0.151836 h -0.948972 q -0.227753,0 -0.417547,0.151836 -0.151836,0.151835 -0.303671,0.493465 z m -2.163657,17.99251 q 0,0.721219 -0.34163,1.062849 -0.303671,0.303671 -1.024889,0.303671 h -5.579956 q -0.721219,0 -1.062849,-0.303671 -0.303671,-0.34163 -0.303671,-1.062849 V 49.364006 q 0,-1.138766 0.34163,-2.619162 0.379589,-1.480397 1.138767,-3.454259 l 3.302422,-8.616666 q 0.227754,-0.645301 0.68326,-0.948972 0.493466,-0.303671 1.252643,-0.303671 h 10.210942 q 0.72122,0 1.17672,0.303671 0.49347,0.303671 0.72122,0.948972 l 3.30242,8.616666 q 0.75918,1.973862 1.10081,3.454259 0.37959,1.480396 0.37959,2.619162 v 10.021145 q 0,0.721219 -0.34163,1.062849 -0.30367,0.303671 -1.02489,0.303671 h -5.73179 q -0.75918,0 -1.13877,-0.303671 -0.34163,-0.34163 -0.34163,-1.062849 v -5.314243 h -6.718719 z"
           style="font-style:normal;font-variant:normal;font-weight:normal;font-stretch:normal;font-size:37.95888138px;font-family:Bungee;-inkscape-font-specification:'Bungee, Normal';font-variant-ligatures:normal;font-variant-caps:normal;font-variant-numeric:normal;font-feature-settings:normal;text-align:start;writing-mode:lr-tb;text-anchor:start;fill:#ffffff;stroke:#2c2ca0;stroke-width:3;stroke-linecap:butt;stroke-linejoin:round;stroke-miterlimit:4;stroke-dasharray:none;stroke-opacity:1;paint-order:stroke fill markers"
           id="path1518-2-7"
           inkscape:connector-curvature="0" />
        <path
           d="m 135.02351,60.751671 h -11.95705 q -4.74486,0 -7.06035,-1.897944 -2.27753,-1.897944 -2.27753,-5.845668 V 41.164888 q 0,-3.947724 2.27753,-5.845668 2.31549,-1.897944 7.06035,-1.897944 h 9.48972 q 0.72122,0 1.02489,0.34163 0.34163,0.303671 0.34163,1.02489 v 4.593025 q 0,0.721218 -0.34163,1.062848 -0.30367,0.303671 -1.02489,0.303671 h -7.89544 q -1.17673,0 -1.74611,0.493466 -0.56939,0.455506 -0.56939,1.404478 v 9.072173 q 0,0.948972 0.41755,1.404479 0.45551,0.455506 1.32856,0.455506 h 3.68201 v -5.921585 q 0,-0.721219 0.30367,-1.02489 0.34163,-0.34163 1.06285,-0.34163 h 5.88363 q 0.72122,0 1.02489,0.34163 0.34163,0.303671 0.34163,1.02489 v 11.729294 q 0,0.721219 -0.34163,1.062849 -0.30367,0.303671 -1.02489,0.303671 z"
           style="font-style:normal;font-variant:normal;font-weight:normal;font-stretch:normal;font-size:37.95888138px;font-family:Bungee;-inkscape-font-specification:'Bungee, Normal';font-variant-ligatures:normal;font-variant-caps:normal;font-variant-numeric:normal;font-feature-settings:normal;text-align:start;writing-mode:lr-tb;text-anchor:start;fill:#ffffff;stroke:#2c2ca0;stroke-width:3;stroke-linecap:butt;stroke-linejoin:round;stroke-miterlimit:4;stroke-dasharray:none;stroke-opacity:1;paint-order:stroke fill markers"
           id="path1520-7-6"
           inkscape:connector-curvature="0" />
        <path
           d="m 150.96565,41.392641 -1.78407,5.76975 h 5.95954 l -1.78406,-5.76975 q -0.15184,-0.34163 -0.34163,-0.493465 -0.15184,-0.151836 -0.37959,-0.151836 h -0.94897 q -0.22776,0 -0.41755,0.151836 -0.15184,0.151835 -0.30367,0.493465 z m -2.16366,17.99251 q 0,0.721219 -0.34163,1.062849 -0.30367,0.303671 -1.02489,0.303671 h -5.57995 q -0.72122,0 -1.06285,-0.303671 Q 140.489,60.10637 140.489,59.385151 V 49.364006 q 0,-1.138766 0.34163,-2.619162 0.37958,-1.480397 1.13876,-3.454259 l 3.30243,-8.616666 q 0.22775,-0.645301 0.68326,-0.948972 0.49346,-0.303671 1.25264,-0.303671 h 10.21094 q 0.72122,0 1.17672,0.303671 0.49347,0.303671 0.72122,0.948972 l 3.30242,8.616666 q 0.75918,1.973862 1.10081,3.454259 0.37959,1.480396 0.37959,2.619162 v 10.021145 q 0,0.721219 -0.34163,1.062849 -0.30367,0.303671 -1.02489,0.303671 h -5.73179 q -0.75918,0 -1.13877,-0.303671 -0.34163,-0.34163 -0.34163,-1.062849 v -5.314243 h -6.71872 z"
           style="font-style:normal;font-variant:normal;font-weight:normal;font-stretch:normal;font-size:37.95888138px;font-family:Bungee;-inkscape-font-specification:'Bungee, Normal';font-variant-ligatures:normal;font-variant-caps:normal;font-variant-numeric:normal;font-feature-settings:normal;text-align:start;writing-mode:lr-tb;text-anchor:start;fill:#ffffff;stroke:#2c2ca0;stroke-width:3;stroke-linecap:butt;stroke-linejoin:round;stroke-miterlimit:4;stroke-dasharray:none;stroke-opacity:1;paint-order:stroke fill markers"
           id="path1522-36-3"
           inkscape:connector-curvature="0" />
        <path
           d="m 175.84651,60.751671 h -5.69384 q -0.72121,0 -1.06284,-0.303671 -0.30367,-0.34163 -0.30367,-1.062849 V 34.787796 q 0,-0.721219 0.30367,-1.02489 0.34163,-0.34163 1.06284,-0.34163 h 3.94773 q 0.72122,0 1.21468,0.227754 0.53143,0.227753 1.02489,0.797136 l 7.36403,8.426872 v -8.085242 q 0,-0.721219 0.30367,-1.02489 0.34163,-0.34163 1.06285,-0.34163 h 5.69383 q 0.72122,0 1.02489,0.34163 0.34163,0.303671 0.34163,1.02489 v 24.597355 q 0,0.721219 -0.34163,1.062849 -0.30367,0.303671 -1.02489,0.303671 h -5.69383 q -0.72122,0 -1.06285,-0.303671 -0.30367,-0.34163 -0.30367,-1.062849 v -4.668942 l -6.49097,-7.857489 v 12.526431 q 0,0.721219 -0.34163,1.062849 -0.30367,0.303671 -1.02489,0.303671 z"
           style="font-style:normal;font-variant:normal;font-weight:normal;font-stretch:normal;font-size:37.95888138px;font-family:Bungee;-inkscape-font-specification:'Bungee, Normal';font-variant-ligatures:normal;font-variant-caps:normal;font-variant-numeric:normal;font-feature-settings:normal;text-align:start;writing-mode:lr-tb;text-anchor:start;fill:#ffffff;stroke:#2c2ca0;stroke-width:3;stroke-linecap:butt;stroke-linejoin:round;stroke-miterlimit:4;stroke-dasharray:none;stroke-opacity:1;paint-order:stroke fill markers"
           id="path1524-4-0"
           inkscape:connector-curvature="0" />
      </g>
      <g
         aria-label="Web"
         style="font-style:normal;font-weight:normal;font-size:36.30252457px;line-height:1.25;font-family:sans-serif;letter-spacing:0px;word-spacing:0px;fill:#ffffff;fill-opacity:1;stroke:none;stroke-width:0.90756315"
         id="text3719-3-6-1">
        <path
           d="m 49.157817,64.006737 h 5.409265 q 0.689772,0 0.980203,0.326735 0.326734,0.29043 0.326734,0.980202 v 14.085872 q 0,1.161722 -0.108912,2.178228 -0.07261,0.980203 -0.544557,2.323443 l -1.815189,4.937316 q -0.181519,0.544557 -0.544557,0.943899 -0.326734,0.363038 -0.907595,0.363038 h -4.828405 q -0.580861,0 -1.05281,-0.254127 -0.471949,-0.254126 -0.617164,-0.834987 l -1.669975,-5.917519 q -0.108911,-0.363038 -0.29043,-0.471949 -0.145216,-0.145215 -0.363038,-0.145215 h -0.326734 q -0.217823,0 -0.399342,0.145215 -0.145215,0.108911 -0.254127,0.471949 l -1.706278,5.917519 q -0.145215,0.544557 -0.544557,0.834987 -0.399342,0.254127 -0.980202,0.254127 h -4.792101 q -0.580861,0 -1.016507,-0.363038 -0.399341,-0.363038 -0.58086,-0.943899 l -1.81519,-5.009924 q -0.471949,-1.34324 -0.580861,-2.323443 -0.07261,-1.016506 -0.07261,-2.178227 V 65.313674 q 0,-0.689772 0.29043,-0.980202 0.326734,-0.326735 1.016506,-0.326735 h 5.590785 q 0.689772,0 0.980202,0.326735 0.326734,0.29043 0.326734,0.980202 V 78.67347 l 2.10562,-4.574278 q 0.290431,-0.617164 0.76238,-0.871291 0.471949,-0.254126 1.161721,-0.254126 h 1.52476 q 0.689772,0 1.161721,0.254126 0.47195,0.254127 0.76238,0.871291 l 2.10562,4.574278 V 65.313674 q 0,-0.689772 0.29043,-0.980202 0.326735,-0.326735 1.016507,-0.326735 z"
           style="font-style:normal;font-variant:normal;font-weight:normal;font-stretch:normal;font-size:36.30379486px;font-family:Bungee;-inkscape-font-specification:'Bungee, Normal';font-variant-ligatures:normal;font-variant-caps:normal;font-variant-numeric:normal;font-feature-settings:normal;text-align:start;writing-mode:lr-tb;text-anchor:start;fill:#ffffff;stroke-width:0.90756315"
           id="path1527-82-1"
           inkscape:connector-curvature="0" />
        <path
           d="M 78.675639,90.14547 H 61.830678 q -0.689772,0 -1.016506,-0.290431 -0.29043,-0.326734 -0.29043,-1.016506 V 65.313674 q 0,-0.689772 0.29043,-0.980202 0.326734,-0.326735 1.016506,-0.326735 h 16.844961 q 0.689772,0 0.980202,0.326735 0.326735,0.29043 0.326735,0.980202 v 4.247544 q 0,0.689772 -0.326735,1.016506 -0.29043,0.290431 -0.980202,0.290431 H 68.655792 v 2.795392 h 7.07924 q 0.689772,0 0.980202,0.326734 0.326734,0.29043 0.326734,0.980202 v 3.884506 q 0,0.689773 -0.326734,1.016507 -0.29043,0.29043 -0.980202,0.29043 h -7.07924 v 3.122126 h 10.019847 q 0.689772,0 0.980202,0.326735 0.326735,0.29043 0.326735,0.980202 v 4.247544 q 0,0.689772 -0.326735,1.016506 -0.29043,0.290431 -0.980202,0.290431 z"
           style="font-style:normal;font-variant:normal;font-weight:normal;font-stretch:normal;font-size:36.30379486px;font-family:Bungee;-inkscape-font-specification:'Bungee, Normal';font-variant-ligatures:normal;font-variant-caps:normal;font-variant-numeric:normal;font-feature-settings:normal;text-align:start;writing-mode:lr-tb;text-anchor:start;fill:#ffffff;stroke-width:0.90756315"
           id="path1529-64-0"
           inkscape:connector-curvature="0" />
        <path
           d="M 99.524795,90.14547 H 85.584138 q -0.689772,0 -1.016506,-0.290431 -0.29043,-0.326734 -0.29043,-1.016506 V 65.313674 q 0,-0.689772 0.29043,-0.980202 0.326734,-0.326735 1.016506,-0.326735 h 11.580911 q 3.557771,0 5.264051,1.379545 1.70628,1.34324 1.70628,4.174936 V 71.3038 q 0,1.52476 -0.54456,2.504962 -0.50825,0.943899 -1.59737,1.415848 2.32345,0.217823 3.44886,1.597367 1.12542,1.379544 1.12542,4.029721 v 3.339949 q 0,3.049519 -1.74258,4.501671 -1.70628,1.452152 -5.300355,1.452152 z m -7.07924,-19.967088 v 3.92081 h 3.085823 q 0.689772,0 1.016506,-0.363038 0.363038,-0.363038 0.363038,-1.089113 v -1.016507 q 0,-0.726076 -0.363038,-1.089114 -0.326734,-0.363038 -1.016506,-0.363038 z m 0,9.511595 v 4.283848 h 4.719494 q 0.689772,0 1.016506,-0.363038 0.363038,-0.363038 0.363038,-1.089114 v -1.415848 q 0,-0.726076 -0.363038,-1.05281 -0.326734,-0.363038 -1.016506,-0.363038 z"
           style="font-style:normal;font-variant:normal;font-weight:normal;font-stretch:normal;font-size:36.30379486px;font-family:Bungee;-inkscape-font-specification:'Bungee, Normal';font-variant-ligatures:normal;font-variant-caps:normal;font-variant-numeric:normal;font-feature-settings:normal;text-align:start;writing-mode:lr-tb;text-anchor:start;fill:#ffffff;stroke-width:0.90756315"
           id="path1531-0-9"
           inkscape:connector-curvature="0" />
      </g>
      <g
         aria-label="Design"
         style="font-style:normal;font-weight:normal;font-size:20.25934219px;line-height:1.25;font-family:sans-serif;letter-spacing:0px;word-spacing:0px;fill:#ffffff;fill-opacity:1;stroke:none;stroke-width:0.5064835"
         id="text3723-0-3-0">
        <path
           d="m 118.74469,84.388176 h -6.82743 q -0.38493,0 -0.56726,-0.162075 -0.16208,-0.182335 -0.16208,-0.567264 V 70.530736 q 0,-0.384929 0.16208,-0.547004 0.18233,-0.182335 0.56726,-0.182335 h 6.82743 q 2.53242,0 3.74799,1.012971 1.23582,1.012971 1.23582,3.11995 v 6.320937 q 0,2.106979 -1.23582,3.11995 -1.21557,1.012971 -3.74799,1.012971 z m -2.95788,-10.71723 v 6.888201 h 2.41087 q 0.48623,0 0.70908,-0.243113 0.24311,-0.243113 0.24311,-0.749599 v -4.923037 q 0,-0.506486 -0.24311,-0.729339 -0.22285,-0.243113 -0.70908,-0.243113 z"
           style="font-style:normal;font-variant:normal;font-weight:normal;font-stretch:normal;font-size:20.25941467px;font-family:Bungee;-inkscape-font-specification:'Bungee, Normal';font-variant-ligatures:normal;font-variant-caps:normal;font-variant-numeric:normal;font-feature-settings:normal;text-align:start;writing-mode:lr-tb;text-anchor:start;fill:#ffffff;stroke-width:0.5064835"
           id="path1534-1-3"
           inkscape:connector-curvature="0" />
        <path
           d="m 136.43305,84.388176 h -9.40037 q -0.38492,0 -0.56726,-0.162075 -0.16207,-0.182335 -0.16207,-0.567264 V 70.530736 q 0,-0.384929 0.16207,-0.547004 0.18234,-0.182335 0.56726,-0.182335 h 9.40037 q 0.38493,0 0.54701,0.182335 0.18233,0.162075 0.18233,0.547004 v 2.370352 q 0,0.384929 -0.18233,0.567263 -0.16208,0.162076 -0.54701,0.162076 h -5.5916 v 1.559975 h 3.95059 q 0.38493,0 0.547,0.182334 0.18234,0.162076 0.18234,0.547005 v 2.167757 q 0,0.384929 -0.18234,0.567264 -0.16207,0.162075 -0.547,0.162075 h -3.95059 v 1.74231 h 5.5916 q 0.38493,0 0.54701,0.182334 0.18233,0.162076 0.18233,0.547005 v 2.370351 q 0,0.384929 -0.18233,0.567264 -0.16208,0.162075 -0.54701,0.162075 z"
           style="font-style:normal;font-variant:normal;font-weight:normal;font-stretch:normal;font-size:20.25941467px;font-family:Bungee;-inkscape-font-specification:'Bungee, Normal';font-variant-ligatures:normal;font-variant-caps:normal;font-variant-numeric:normal;font-feature-settings:normal;text-align:start;writing-mode:lr-tb;text-anchor:start;fill:#ffffff;stroke-width:0.5064835"
           id="path1536-0-8"
           inkscape:connector-curvature="0" />
        <path
           d="m 146.32566,84.388176 h -6.40197 q -0.38493,0 -0.56727,-0.162075 -0.16207,-0.182335 -0.16207,-0.567264 v -2.370351 q 0,-0.384929 0.16207,-0.547005 0.18234,-0.182334 0.56727,-0.182334 h 5.44978 q 0.26337,0 0.38493,-0.162076 0.14181,-0.182334 0.14181,-0.425447 0,-0.34441 -0.14181,-0.506486 -0.12156,-0.162075 -0.38493,-0.182335 l -3.03891,-0.425447 q -1.41816,-0.202594 -2.28932,-0.931933 -0.85089,-0.729339 -0.85089,-2.43113 v -2.127239 q 0,-1.72205 1.11427,-2.633724 1.11426,-0.931933 3.07943,-0.931933 h 5.67263 q 0.38493,0 0.54701,0.182335 0.18233,0.162075 0.18233,0.547004 v 2.410871 q 0,0.384929 -0.18233,0.567263 -0.16208,0.162076 -0.54701,0.162076 h -4.72044 q -0.26337,0 -0.40519,0.182334 -0.14182,0.162076 -0.14182,0.425448 0,0.263372 0.14182,0.445707 0.14182,0.182335 0.40519,0.202594 l 3.01865,0.405189 q 1.41816,0.202594 2.28932,0.931933 0.87115,0.729339 0.87115,2.431129 v 2.127239 q 0,1.72205 -1.13453,2.653983 -1.11426,0.911674 -3.05917,0.911674 z"
           style="font-style:normal;font-variant:normal;font-weight:normal;font-stretch:normal;font-size:20.25941467px;font-family:Bungee;-inkscape-font-specification:'Bungee, Normal';font-variant-ligatures:normal;font-variant-caps:normal;font-variant-numeric:normal;font-feature-settings:normal;text-align:start;writing-mode:lr-tb;text-anchor:start;fill:#ffffff;stroke-width:0.5064835"
           id="path1538-9-7"
           inkscape:connector-curvature="0" />
        <path
           d="m 153.14074,84.388176 q -0.38493,0 -0.56727,-0.162075 -0.16207,-0.182335 -0.16207,-0.567264 v -2.41087 q 0,-0.384929 0.16207,-0.547005 0.18234,-0.182334 0.56727,-0.182334 h 2.00568 v -6.807164 h -2.00568 q -0.38493,0 -0.56727,-0.162075 -0.16207,-0.182335 -0.16207,-0.567263 v -2.45139 q 0,-0.384929 0.16207,-0.547004 0.18234,-0.182335 0.56727,-0.182335 h 8.63051 q 0.38493,0 0.547,0.182335 0.18234,0.162075 0.18234,0.547004 v 2.45139 q 0,0.384928 -0.18234,0.567263 -0.16207,0.162075 -0.547,0.162075 h -1.96516 v 6.807164 h 1.96516 q 0.38493,0 0.547,0.182334 0.18234,0.162076 0.18234,0.547005 v 2.41087 q 0,0.384929 -0.18234,0.567264 -0.16207,0.162075 -0.547,0.162075 z"
           style="font-style:normal;font-variant:normal;font-weight:normal;font-stretch:normal;font-size:20.25941467px;font-family:Bungee;-inkscape-font-specification:'Bungee, Normal';font-variant-ligatures:normal;font-variant-caps:normal;font-variant-numeric:normal;font-feature-settings:normal;text-align:start;writing-mode:lr-tb;text-anchor:start;fill:#ffffff;stroke-width:0.5064835"
           id="path1540-7-6"
           inkscape:connector-curvature="0" />
        <path
           d="m 176.14467,84.388176 h -6.38171 q -2.53243,0 -3.76825,-1.012971 -1.21557,-1.012971 -1.21557,-3.11995 v -6.320937 q 0,-2.106979 1.21557,-3.11995 1.23582,-1.012971 3.76825,-1.012971 h 5.06485 q 0.38493,0 0.54701,0.182335 0.18233,0.162075 0.18233,0.547004 v 2.45139 q 0,0.384928 -0.18233,0.567263 -0.16208,0.162075 -0.54701,0.162075 h -4.21396 q -0.62804,0 -0.93193,0.263373 -0.30389,0.243113 -0.30389,0.749598 v 4.842 q 0,0.506486 0.22285,0.749599 0.24312,0.243113 0.70908,0.243113 h 1.96516 v -3.160469 q 0,-0.384929 0.16208,-0.547004 0.18233,-0.182335 0.56726,-0.182335 h 3.14021 q 0.38493,0 0.54701,0.182335 0.18233,0.162075 0.18233,0.547004 v 6.260159 q 0,0.384929 -0.18233,0.567264 -0.16208,0.162075 -0.54701,0.162075 z"
           style="font-style:normal;font-variant:normal;font-weight:normal;font-stretch:normal;font-size:20.25941467px;font-family:Bungee;-inkscape-font-specification:'Bungee, Normal';font-variant-ligatures:normal;font-variant-caps:normal;font-variant-numeric:normal;font-feature-settings:normal;text-align:start;writing-mode:lr-tb;text-anchor:start;fill:#ffffff;stroke-width:0.5064835"
           id="path1542-3-4"
           inkscape:connector-curvature="0" />
        <path
           d="m 183.13386,84.388176 h -3.03892 q -0.38493,0 -0.56726,-0.162075 -0.16208,-0.182335 -0.16208,-0.567264 V 70.530736 q 0,-0.384929 0.16208,-0.547004 0.18233,-0.182335 0.56726,-0.182335 h 2.10698 q 0.38493,0 0.6483,0.121557 0.28364,0.121556 0.54701,0.425448 l 3.93032,4.49759 v -4.315256 q 0,-0.384929 0.16208,-0.547004 0.18233,-0.182335 0.56726,-0.182335 h 3.03892 q 0.38492,0 0.547,0.182335 0.18233,0.162075 0.18233,0.547004 v 13.128101 q 0,0.384929 -0.18233,0.567264 -0.16208,0.162075 -0.547,0.162075 h -3.03892 q -0.38493,0 -0.56726,-0.162075 -0.16208,-0.182335 -0.16208,-0.567264 v -2.491908 l -3.46436,-4.193699 v 6.685607 q 0,0.384929 -0.18233,0.567264 -0.16208,0.162075 -0.547,0.162075 z"
           style="font-style:normal;font-variant:normal;font-weight:normal;font-stretch:normal;font-size:20.25941467px;font-family:Bungee;-inkscape-font-specification:'Bungee, Normal';font-variant-ligatures:normal;font-variant-caps:normal;font-variant-numeric:normal;font-feature-settings:normal;text-align:start;writing-mode:lr-tb;text-anchor:start;fill:#ffffff;stroke-width:0.5064835"
           id="path1544-7-4"
           inkscape:connector-curvature="0" />
      </g>
      <path
         style="fill:#ffffff;stroke-width:0.34294289"
         d="m 111.64235,85.719719 h 80.44452 c 0.25439,0 0.45919,0.431706 0.45919,0.967951 v 1.949978 c 0,0.536245 -0.2048,0.967952 -0.45919,0.967952 h -80.44452 c -0.25439,0 -0.45919,-0.431707 -0.45919,-0.967952 V 86.68767 c 0,-0.536245 0.2048,-0.967951 0.45919,-0.967951 z"
         id="rect3725-9-3-9-7"
         inkscape:connector-curvature="0" />
      <path
         style="fill:#ffffff;stroke-width:0.34294289"
         d="M 111.64248,64.683075 H 192.087 c 0.25439,0 0.45919,0.431706 0.45919,0.967951 v 1.949978 c 0,0.536245 -0.2048,0.967952 -0.45919,0.967952 h -80.44452 c -0.25439,0 -0.45919,-0.431707 -0.45919,-0.967952 v -1.949978 c 0,-0.536245 0.2048,-0.967951 0.45919,-0.967951 z"
         id="rect3725-9-0-8-7-7"
         inkscape:connector-curvature="0" />
    </g>
  </g>
</svg>
