<?xml version="1.0" encoding="utf-8"?>
<!-- Generator: Adobe Illustrator 22.0.0, SVG Export Plug-In . SVG Version: 6.00 Build 0)  -->
<svg version="1.1" id="Layer_1" xmlns="http://www.w3.org/2000/svg" xmlns:xlink="http://www.w3.org/1999/xlink" x="0px" y="0px"
	 viewBox="0 0 600 225" style="enable-background:new 0 0 600 225;" xml:space="preserve">
<style type="text/css">
	.st0{fill:#7D7D7D;}
	.st1{fill:#2C2CA0;}
	.st2{fill:#FFFFFF;}
</style>
<g>
	<g>
		<path class="st0" d="M64.6,60.5h508.5c14.3,0,24.2,8.6,22.1,19.2L573,193.9c-2.1,10.6-15.3,19.2-29.6,19.2H34.8
			c-14.3,0-24.2-8.6-22.1-19.2L35,79.7C37.1,69.1,50.3,60.5,64.6,60.5z"/>
		<g>
			<path class="st0" d="M63.9,107c-2.2,0-3.9-0.6-4.9-1.7l-0.1-0.1l-0.1-0.1c-0.9-1.3-1.1-3-0.7-5.2l14.9-76.1
				c0.4-2.1,1.2-3.6,2.4-4.6c1.3-1.1,3-1.6,5.1-1.6H120c10.6,0,17.9,2.2,22.4,6.6c4.6,4.5,6.1,11.4,4.3,20.3L139.5,81
				c-1.7,8.8-5.6,15.4-11.7,19.7c-5.9,4.2-14,6.3-24.3,6.3H63.9z M104.6,79.8c1.2,0,2.1-0.3,2.7-0.8c0.7-0.6,1.2-1.6,1.5-3l5.6-28.5
				c0.3-1.4,0.1-2,0-2.1l-0.1-0.1l-0.1-0.1c-0.1-0.1-0.5-0.4-1.8-0.4h-11.9l-6.8,34.9H104.6z"/>
			<path class="st0" d="M120,19.9c9.8,0,16.7,2,20.6,5.9c4,3.9,5.2,9.9,3.6,18.1L137,80.6c-1.6,8.1-5.2,14.2-10.7,18.1
				c-5.5,3.9-13.1,5.9-22.9,5.9H63.9c-1.5,0-2.5-0.3-3.1-0.9c-0.5-0.7-0.6-1.8-0.3-3.3l14.9-76.1c0.3-1.5,0.8-2.5,1.6-3.2
				c0.8-0.7,2-1.1,3.5-1.1H120 M90.6,82.3h14c1.9,0,3.3-0.5,4.4-1.4c1.1-0.9,1.9-2.4,2.3-4.3l5.6-28.6c0.4-2,0.2-3.4-0.6-4.2
				c-0.7-0.9-2-1.4-3.8-1.4h-14L90.6,82.3 M120,14.9H80.4c-2.7,0-5,0.8-6.7,2.2c-1.6,1.4-2.7,3.4-3.2,6L55.6,99.3
				c-0.6,2.9-0.2,5.2,1.1,7.1l0.2,0.3l0.2,0.3c1.6,1.7,3.8,2.5,6.8,2.5h39.6c10.8,0,19.5-2.3,25.8-6.8c6.6-4.7,10.9-11.8,12.7-21.2
				l7.2-36.6c1.9-9.9,0.2-17.5-5.1-22.6C139.1,17.3,131.2,14.9,120,14.9L120,14.9z M102.6,47.4h9.3l-5.5,28.2
				c-0.2,0.9-0.5,1.4-0.6,1.5l-0.1,0.1l-0.1,0.1c0,0,0,0,0,0c0,0-0.3,0.1-1.1,0.1h-7.9L102.6,47.4L102.6,47.4z"/>
		</g>
		<g>
			<path class="st0" d="M199,107c-2.2,0-3.9-0.6-4.9-1.7l-0.1-0.1l-0.1-0.1c-0.9-1.3-1.1-3-0.7-5.2l3.5-18c0.3-1.4,0.1-1.9,0.1-1.9
				l-0.1-0.1c-0.1,0-0.4-0.1-1-0.1h-14.4l-4.1,21c-0.4,2.1-1.3,3.7-2.6,4.7c-1.2,1-2.9,1.5-5,1.5h-18.1c-2.2,0-3.9-0.6-4.9-1.7
				l-0.1-0.1l-0.1-0.1c-0.9-1.3-1.1-3-0.7-5.2l14.9-76.1c0.4-2.1,1.2-3.6,2.4-4.6c1.3-1.1,3-1.6,5.1-1.6h39.1c9.7,0,16,2.2,19.1,6.6
				c3,4.1,4,9.5,2.7,16l-1.1,5.4c-0.7,3.6-1.9,6.7-3.5,9.3c-0.6,1-1.3,1.9-2.2,2.7c2.2,1.1,3.9,2.6,5.3,4.7
				c2.5,3.5,3.2,8.1,2.1,13.7l-4.9,24.9c-0.4,2.1-1.3,3.6-2.5,4.7c-1.2,1-2.9,1.5-5,1.5H199z M192.1,53.6c1.2,0,2.1-0.2,2.5-0.7
				c0.6-0.7,1-1.7,1.2-2.8l0.8-4c0.2-1,0.2-1.8-0.1-2.3l0,0c-0.1-0.1-0.5-0.2-1.5-0.2h-6.8l-2,10H192.1z"/>
			<path class="st0" d="M207.1,19.9c8.8,0,14.4,1.8,17,5.5c2.7,3.6,3.4,8.3,2.3,14.1l-1.1,5.4c-0.6,3.3-1.7,6.1-3.2,8.5
				c-1.4,2.3-3.4,3.9-6,4.9c4.1,0.5,7.2,2.2,9.2,5.2c2.1,3,2.6,6.9,1.7,11.9l-4.9,24.9c-0.3,1.5-0.9,2.6-1.7,3.3
				c-0.8,0.6-1.9,0.9-3.4,0.9H199c-1.5,0-2.5-0.3-3.1-0.9c-0.5-0.7-0.6-1.8-0.3-3.3l3.5-18c0.3-1.7,0.2-3-0.3-3.8
				c-0.5-0.9-1.5-1.3-3.2-1.3h-16.4l-4.5,23c-0.3,1.5-0.9,2.6-1.7,3.3c-0.8,0.6-1.9,0.9-3.4,0.9h-18.1c-1.5,0-2.5-0.3-3.1-0.9
				c-0.5-0.7-0.6-1.8-0.3-3.3L163,24.2c0.3-1.5,0.8-2.5,1.6-3.2c0.8-0.7,2-1.1,3.5-1.1H207.1 M183.3,56.1h8.8c2,0,3.5-0.5,4.4-1.5
				c0.9-1.1,1.5-2.4,1.8-4l0.8-4c0.3-1.6,0.2-2.9-0.3-3.9c-0.5-1.1-1.8-1.6-3.8-1.6h-8.8L183.3,56.1 M207.1,14.9H168
				c-2.7,0-4.9,0.7-6.7,2.2c-1.6,1.4-2.7,3.4-3.3,6.1l-14.9,76.1c-0.6,2.9-0.2,5.3,1.1,7.1l0.2,0.3l0.2,0.3c1.6,1.7,3.8,2.5,6.8,2.5
				h18.1c2.7,0,4.9-0.7,6.6-2.1c1.7-1.5,2.9-3.5,3.4-6.2l3.7-19H194l-3.3,17.1c-0.6,2.8-0.2,5.2,1.1,7.1l0.2,0.3l0.2,0.3
				c1.6,1.7,3.8,2.5,6.8,2.5h18.2c2.7,0,4.9-0.7,6.6-2.1c1.7-1.5,2.9-3.5,3.4-6.2l4.9-24.9c1.2-6.3,0.4-11.5-2.5-15.7
				c-1-1.5-2.2-2.8-3.6-3.8c0.2-0.3,0.4-0.5,0.5-0.8c1.8-2.9,3.1-6.3,3.8-10.1l1.1-5.4c1.4-7.2,0.3-13.2-3.1-18
				C224.6,17.4,217.7,14.9,207.1,14.9L207.1,14.9z M190.3,46.1h3.8l-0.7,3.6c-0.1,0.6-0.3,1-0.5,1.4c-0.2,0-0.4,0.1-0.8,0.1h-2.7
				L190.3,46.1L190.3,46.1z"/>
		</g>
		<g>
			<path class="st0" d="M283.8,107c-2.3,0-3.9-0.5-5.1-1.6l-0.1-0.1l-0.1-0.1c-1.1-1.3-1.4-3.1-0.9-5.3l2.6-13.5h-15.7l-2.8,14.4
				c-0.4,2.1-1.3,3.7-2.5,4.7c-1.2,1-2.9,1.5-5,1.5H237c-2.2,0-3.9-0.6-4.9-1.7l-0.1-0.1l-0.1-0.1c-0.9-1.3-1.1-3-0.7-5.2l6.1-31
				c0.5-2.5,1.4-5.4,2.8-8.6c1.4-3.2,3.4-6.8,5.7-11l15.4-26.7c0.9-1.7,2.1-3,3.6-3.8c1.6-0.9,3.3-1.3,5.3-1.3h31.6
				c2,0,3.7,0.5,4.9,1.4c1,0.7,2.3,2.1,2.7,4.6l5,26.6c0.8,4.2,1.3,7.9,1.4,11.1c0.2,3.2,0,6.1-0.5,8.7l-6,31
				c-0.4,2.1-1.3,3.7-2.6,4.7c-1.2,1-2.9,1.5-5,1.5H283.8z M283.5,60l-1.7-14.9h-2.2c-0.1,0.1-0.3,0.3-0.6,0.7L271.9,60H283.5z"/>
			<path class="st0" d="M301.6,19.9c1.5,0,2.6,0.3,3.5,0.9c0.9,0.6,1.4,1.6,1.7,2.9l5,26.7c0.8,4.1,1.2,7.6,1.3,10.7
				c0.2,3.1,0.1,5.8-0.4,8.1l-6.1,31c-0.3,1.5-0.9,2.6-1.7,3.3c-0.8,0.6-1.9,0.9-3.4,0.9h-17.7c-1.6,0-2.7-0.3-3.3-0.9
				c-0.6-0.7-0.7-1.8-0.4-3.3l3.2-16.4h-20.8l-3.2,16.4c-0.3,1.5-0.9,2.6-1.7,3.3c-0.7,0.6-1.9,0.9-3.4,0.9H237
				c-1.5,0-2.5-0.3-3.1-0.9c-0.5-0.7-0.6-1.8-0.3-3.3l6.1-31c0.5-2.3,1.3-5.1,2.6-8.1c1.4-3.1,3.3-6.6,5.6-10.7l15.4-26.7
				c0.7-1.3,1.6-2.3,2.7-2.9c1.1-0.6,2.5-0.9,4.1-0.9H301.6 M267.8,62.5h18.4l-2-17.9c-0.2-0.7-0.4-1.2-0.8-1.5
				c-0.3-0.3-0.6-0.5-1.1-0.5h-2.9c-0.5,0-0.9,0.2-1.4,0.5c-0.4,0.3-0.8,0.8-1.2,1.5L267.8,62.5 M301.6,14.9H270
				c-2.4,0-4.6,0.5-6.5,1.6l-0.1,0l-0.1,0c-1.8,1.1-3.3,2.7-4.5,4.8L243.5,48c-2.4,4.2-4.4,8-5.8,11.1l0,0l0,0
				c-1.4,3.4-2.4,6.4-2.9,9.1l-6.1,31c-0.6,2.8-0.2,5.2,1.1,7.1l0.2,0.3l0.2,0.3c1.6,1.7,3.8,2.5,6.8,2.5h17.3
				c2.7,0,4.9-0.7,6.6-2.1c1.7-1.4,2.9-3.5,3.4-6.2l2.4-12.4h10.6l-2,10.5c-0.6,3-0.1,5.5,1.4,7.4l0.2,0.3l0.2,0.2
				c1.6,1.5,3.9,2.3,6.8,2.3h17.7c2.7,0,4.9-0.7,6.6-2.1c1.7-1.5,2.9-3.5,3.4-6.2l6.1-31c0.5-2.7,0.7-5.8,0.5-9.3
				c-0.1-3.3-0.6-7.1-1.4-11.4l-5-26.6c-0.5-3.3-2.2-5.1-3.6-6.1C306.3,15.6,304.2,14.9,301.6,14.9L301.6,14.9z M276,57.5l3.8-7.6
				l0.9,7.6H276L276,57.5z"/>
		</g>
		<g>
			<path class="st0" d="M347.9,107c-10.6,0-17.9-2.2-22.5-6.6c-4.6-4.5-6-11.4-4.2-20.4l7.2-36.7c1.7-8.8,5.6-15.4,11.6-19.6
				c6-4.2,14.2-6.3,24.5-6.3h29.4c2.3,0,3.9,0.7,4.9,2c1.1,1.2,1.4,3,0.9,5.2l-2.8,14.2c-0.4,2.1-1.3,3.7-2.6,4.7
				c-1.2,1-2.9,1.5-5,1.5h-24.4c-1.9,0-3.3,0.3-4.2,1c-0.9,0.6-1.4,1.5-1.6,2.8l-5.5,28.1c-0.3,1.4-0.1,2.1,0,2.4
				c0.3,0.3,1,0.4,1.8,0.4h9.3l3.2-16.3c0.4-2.1,1.2-3.6,2.4-4.6c1.3-1.1,3-1.6,5.1-1.6h18.2c2.3,0,3.9,0.7,4.9,2
				c1.1,1.2,1.4,3,0.9,5.2l-7.1,36.3c-0.4,2.1-1.3,3.7-2.5,4.7c-1.2,1-2.9,1.5-5,1.5H347.9z"/>
			<path class="st0" d="M393.8,19.9c1.5,0,2.5,0.4,3,1.1c0.6,0.6,0.7,1.7,0.4,3.2l-2.8,14.2c-0.3,1.5-0.9,2.6-1.7,3.3
				c-0.8,0.6-1.9,0.9-3.4,0.9h-24.4c-2.4,0-4.3,0.5-5.7,1.5c-1.4,0.9-2.2,2.4-2.6,4.3l-5.5,28.1c-0.4,2-0.2,3.4,0.4,4.3
				c0.8,0.9,2,1.4,3.8,1.4h11.4l3.6-18.3c0.3-1.5,0.8-2.5,1.6-3.2c0.8-0.7,2-1.1,3.5-1.1h18.2c1.5,0,2.5,0.4,3,1.1
				c0.6,0.6,0.7,1.7,0.4,3.2l-7.1,36.3c-0.3,1.5-0.9,2.6-1.7,3.3c-0.8,0.6-1.9,0.9-3.4,0.9h-37c-9.8,0-16.7-2-20.7-5.9
				c-3.9-3.9-5.1-9.9-3.5-18.1l7.2-36.7c1.6-8.1,5.1-14.2,10.6-18.1c5.5-3.9,13.2-5.9,23-5.9H393.8 M393.8,14.9h-29.4
				c-10.8,0-19.5,2.3-25.9,6.8c-6.5,4.7-10.8,11.8-12.6,21.2l-7.2,36.7c-1.9,9.8-0.3,17.4,4.9,22.6l0,0l0,0c5,4.9,12.9,7.3,24.2,7.3
				h37c2.7,0,4.9-0.7,6.6-2.1c1.7-1.5,2.9-3.5,3.4-6.2L402,65c0.7-3.6-0.3-5.9-1.4-7.3c-1.1-1.4-3.1-2.9-6.9-2.9h-18.2
				c-2.7,0-4.9,0.7-6.7,2.2c-1.6,1.4-2.7,3.4-3.3,6l-2.8,14.3h-6.6l5.4-27.9c0.1-0.6,0.3-1,0.5-1.2l0.1,0l0.1,0
				c0.2-0.2,0.9-0.5,2.7-0.5h24.4c2.7,0,4.9-0.7,6.6-2.1c1.7-1.4,2.9-3.5,3.4-6.2l2.8-14.2c0.7-3.6-0.3-5.9-1.4-7.3
				C399.6,16.5,397.5,14.9,393.8,14.9L393.8,14.9z"/>
		</g>
		<g>
			<path class="st0" d="M452.9,107c-2.3,0-3.9-0.5-5.1-1.6l-0.1-0.1l-0.1-0.1c-1-1.3-1.4-3.1-0.9-5.3l2.6-13.5h-15.7l-2.8,14.4
				c-0.4,2.1-1.3,3.7-2.6,4.7c-1.2,1-2.9,1.5-5,1.5h-17.3c-2.2,0-3.9-0.6-4.9-1.7l-0.1-0.1l-0.1-0.1c-0.9-1.3-1.1-3-0.7-5.2l6-31
				c0.5-2.5,1.4-5.4,2.8-8.6c1.4-3.2,3.4-6.8,5.7-11l15.4-26.7c0.9-1.7,2.1-3,3.6-3.8c1.6-0.9,3.3-1.3,5.3-1.3h31.6
				c2,0,3.7,0.5,4.9,1.4c1,0.7,2.3,2.1,2.7,4.6l5,26.6c0.8,4.2,1.3,7.9,1.4,11.1c0.2,3.2,0,6.1-0.5,8.7l-6,31
				c-0.4,2.1-1.3,3.6-2.5,4.7c-1.2,1-2.9,1.5-5,1.5H452.9z M452.6,60l-1.7-14.9h-2.2c-0.1,0.1-0.3,0.3-0.6,0.7L441,60H452.6z"/>
			<path class="st0" d="M470.7,19.9c1.5,0,2.6,0.3,3.5,0.9c0.9,0.6,1.4,1.6,1.7,2.9l5,26.7c0.8,4.1,1.2,7.6,1.3,10.7
				c0.2,3.1,0.1,5.8-0.4,8.1l-6.1,31c-0.3,1.5-0.9,2.6-1.7,3.3c-0.8,0.6-1.9,0.9-3.4,0.9h-17.7c-1.6,0-2.7-0.3-3.3-0.9
				c-0.6-0.7-0.7-1.8-0.4-3.3l3.2-16.4h-20.8l-3.2,16.4c-0.3,1.5-0.9,2.6-1.7,3.3c-0.8,0.6-1.9,0.9-3.4,0.9h-17.3
				c-1.5,0-2.5-0.3-3.1-0.9c-0.5-0.7-0.6-1.8-0.3-3.3l6.1-31c0.5-2.3,1.3-5.1,2.6-8.1c1.4-3.1,3.3-6.6,5.6-10.7l15.4-26.7
				c0.7-1.3,1.6-2.3,2.7-2.9c1.1-0.6,2.5-0.9,4.1-0.9H470.7 M436.9,62.5h18.4l-2-17.9c-0.2-0.7-0.4-1.2-0.8-1.5
				c-0.3-0.3-0.6-0.5-1.1-0.5h-2.9c-0.5,0-0.9,0.2-1.4,0.5c-0.4,0.3-0.8,0.8-1.2,1.5L436.9,62.5 M470.7,14.9h-31.6
				c-2.4,0-4.6,0.5-6.5,1.6l-0.1,0l-0.1,0c-1.8,1.1-3.3,2.7-4.5,4.8L412.6,48c-2.4,4.2-4.4,8-5.8,11.1l0,0l0,0
				c-1.5,3.4-2.4,6.4-2.9,9.1l-6,31c-0.6,2.8-0.2,5.2,1.1,7.1l0.2,0.3l0.2,0.3c1.6,1.7,3.8,2.5,6.8,2.5h17.3c2.7,0,4.9-0.7,6.6-2.1
				c1.7-1.5,2.9-3.5,3.4-6.2l2.4-12.4h10.6l-2,10.5c-0.7,3.7,0.4,6.1,1.4,7.4l0.2,0.3l0.2,0.2c1.6,1.5,3.9,2.3,6.8,2.3h17.7
				c2.7,0,4.9-0.7,6.6-2.1c1.7-1.5,2.9-3.5,3.4-6.2l6.1-31c0.5-2.7,0.7-5.9,0.5-9.3c-0.1-3.3-0.6-7.1-1.4-11.4l-5-26.6
				c-0.5-3.3-2.2-5.1-3.6-6.1C475.5,15.6,473.3,14.9,470.7,14.9L470.7,14.9z M445.1,57.5l3.8-7.6l0.9,7.6H445.1L445.1,57.5z"/>
		</g>
		<g>
			<path class="st0" d="M539.8,107c-2.2,0-3.9-0.6-4.9-1.7l-0.1-0.1l-0.1-0.1c-0.9-1.3-1.1-3-0.7-5.2l2.6-13.5l-11.5-18.2l-6.4,32.6
				c-0.4,2.1-1.3,3.7-2.6,4.7c-1.2,1-2.9,1.5-5,1.5h-17.6c-2.2,0-3.9-0.6-4.9-1.7l-0.1-0.1l-0.1-0.1c-0.9-1.3-1.1-3-0.7-5.2
				l14.9-76.1c0.4-2.1,1.2-3.6,2.4-4.6c1.3-1.1,3-1.6,5.1-1.6h12.2c1.9,0,3.5,0.3,4.8,1c1.3,0.6,2.6,1.7,3.6,3.3l14.3,21.1l3.7-19.1
				c0.4-2.1,1.2-3.6,2.4-4.6c1.3-1.1,3-1.6,5.1-1.6h17.6c2.3,0,3.9,0.7,4.9,2c1.1,1.2,1.4,3,0.9,5.2l-14.9,76.1
				c-0.4,2.1-1.3,3.7-2.6,4.7c-1.2,1-2.9,1.5-5,1.5H539.8z"/>
			<path class="st0" d="M573.9,19.9c1.5,0,2.5,0.4,3,1.1c0.6,0.6,0.7,1.7,0.4,3.2l-14.9,76.1c-0.3,1.5-0.9,2.6-1.7,3.3
				c-0.8,0.6-1.9,0.9-3.4,0.9h-17.6c-1.5,0-2.5-0.3-3.1-0.9c-0.5-0.7-0.6-1.8-0.3-3.3l2.8-14.4l-15.3-24.3l-7.6,38.8
				c-0.3,1.5-0.9,2.6-1.7,3.3c-0.8,0.6-1.9,0.9-3.4,0.9h-17.6c-1.5,0-2.5-0.3-3.1-0.9c-0.5-0.7-0.6-1.8-0.3-3.3l14.9-76.1
				c0.3-1.5,0.8-2.5,1.6-3.2c0.8-0.7,2-1.1,3.5-1.1h12.2c1.5,0,2.7,0.2,3.6,0.7c1,0.5,1.9,1.3,2.7,2.5l17.7,26.1l4.9-25
				c0.3-1.5,0.8-2.5,1.6-3.2c0.8-0.7,2-1.1,3.5-1.1H573.9 M573.9,14.9h-17.6c-2.7,0-4.9,0.7-6.7,2.2c-1.6,1.4-2.7,3.4-3.3,6
				l-2.6,13.2l-11-16.1c-1.3-1.9-2.8-3.3-4.6-4.2c-1.6-0.8-3.5-1.2-5.8-1.2h-12.2c-2.7,0-4.9,0.7-6.7,2.2c-1.6,1.4-2.7,3.4-3.3,6
				l-14.9,76.1c-0.6,2.9-0.2,5.3,1.1,7.1l0.2,0.3l0.2,0.3c1.6,1.7,3.8,2.5,6.8,2.5h17.6c2.7,0,4.9-0.7,6.6-2.1
				c1.7-1.5,2.9-3.5,3.4-6.2l5.2-26.4l7.6,12l-2.4,12.5c-0.6,2.9-0.2,5.2,1.1,7.1l0.2,0.3l0.2,0.3c1.6,1.7,3.8,2.5,6.8,2.5h17.6
				c2.7,0,4.9-0.7,6.6-2.1c1.7-1.5,2.9-3.5,3.4-6.2l14.9-76.1c0.7-3.7-0.3-5.9-1.4-7.3C579.7,16.5,577.7,14.9,573.9,14.9L573.9,14.9
				z"/>
		</g>
		<path class="st0" d="M117.2,114.6h16.7c1.4,0,2.4,0.3,2.8,1c0.6,0.6,0.7,1.6,0.4,3l-8.5,43.6c-0.5,2.4-1,4.6-1.7,6.7
			c-0.5,2-1.6,4.4-3.1,7.2l-8.6,15.3c-0.6,1.1-1.3,2.1-2.3,2.9c-0.8,0.7-1.8,1.1-3,1.1H95.1c-1.2,0-2.2-0.3-3.1-0.8
			c-0.9-0.5-1.3-1.4-1.4-2.6L89,173.8c-0.1-0.8-0.3-1.2-0.6-1.5c-0.2-0.3-0.6-0.4-1-0.4h-1c-0.4,0-0.9,0.1-1.3,0.4
			c-0.3,0.2-0.7,0.7-1.1,1.5l-8.9,18.3c-0.5,1.1-1.3,2-2.2,2.6c-0.9,0.5-2,0.8-3.2,0.8H54.9c-1.2,0-2.2-0.4-2.9-1.1
			c-0.7-0.8-1.1-1.7-1.2-2.9L48.1,176c-0.4-2.8-0.6-5.2-0.4-7.2c0.3-2.1,0.6-4.3,1.1-6.7l8.5-43.4c0.3-1.4,0.8-2.4,1.5-3
			c0.8-0.7,1.9-1,3.3-1h17.3c1.4,0,2.4,0.3,2.8,1c0.6,0.6,0.7,1.6,0.4,3L74.6,160l9.3-14.2c0.8-1.3,1.8-2.2,2.9-2.7
			c1.1-0.5,2.3-0.8,3.8-0.8h4.7c1.4,0,2.6,0.3,3.4,0.8c0.9,0.5,1.5,1.4,1.8,2.7l3.8,14.2l8.1-41.4c0.3-1.4,0.8-2.4,1.5-3
			C114.7,114.9,115.8,114.6,117.2,114.6z"/>
		<path class="st0" d="M192.8,195.5h-52.1c-1.4,0-2.4-0.3-3-0.9c-0.5-0.7-0.6-1.7-0.3-3.1l14.2-72.8c0.3-1.4,0.8-2.4,1.5-3
			c0.8-0.7,1.9-1,3.3-1h52.1c1.4,0,2.4,0.3,2.8,1c0.6,0.6,0.7,1.6,0.4,3l-2.6,13.1c-0.3,1.4-0.8,2.5-1.6,3.1
			c-0.7,0.6-1.8,0.9-3.2,0.9h-31l-1.7,8.7h21.9c1.4,0,2.4,0.3,2.8,1c0.6,0.6,0.7,1.6,0.4,3l-2.3,12c-0.3,1.4-0.8,2.5-1.6,3.1
			c-0.7,0.6-1.8,0.9-3.2,0.9h-21.9l-1.9,9.7h31c1.4,0,2.4,0.3,2.8,1c0.6,0.6,0.7,1.6,0.4,3l-2.6,13.1c-0.3,1.4-0.8,2.5-1.6,3.1
			C195.3,195.2,194.2,195.5,192.8,195.5z"/>
		<path class="st0" d="M241.7,163.1l-2.6,13.3h14.6c1.4,0,2.5-0.4,3.4-1.1c0.9-0.8,1.5-1.9,1.8-3.4l0.9-4.4c0.3-1.5,0.1-2.6-0.5-3.3
			c-0.5-0.8-1.5-1.1-2.9-1.1H241.7z M247.4,133.7l-2.4,12.1h9.5c1.4,0,2.5-0.4,3.4-1.1c0.9-0.8,1.5-1.9,1.8-3.4l0.6-3.1
			c0.3-1.5,0.1-2.6-0.5-3.4c-0.5-0.7-1.5-1.1-2.9-1.1H247.4z M257.3,195.5h-43.1c-1.4,0-2.4-0.3-3-0.9c-0.5-0.7-0.6-1.7-0.3-3.1
			l14.2-72.8c0.3-1.4,0.8-2.4,1.5-3c0.8-0.7,1.9-1,3.3-1h35.8c7.3,0,12.5,1.4,15.5,4.3c3,2.8,3.9,7.1,2.8,12.9l-1.1,5.4
			c-0.6,3.1-1.7,5.7-3.2,7.8c-1.4,1.9-3.4,3.4-5.8,4.4c4.7,0.4,7.9,2.1,9.7,4.9c1.8,2.8,2.1,7,1.1,12.5l-2,10.3
			c-1.2,6.3-3.9,10.9-8.1,13.9C270.5,194,264.7,195.5,257.3,195.5z"/>
		<path class="st0" d="M317.6,144.5l-4.2,21.3h7.5c1,0,1.8-0.3,2.3-0.8c0.6-0.5,1-1.3,1.2-2.3l3-15.2c0.2-1,0.1-1.8-0.3-2.3
			c-0.4-0.5-1-0.8-2-0.8H317.6z M320.3,177.7h-21.1c-0.8,0-1.3-0.2-1.7-0.5c-0.3-0.4-0.3-1-0.2-1.8l7.9-40.6
			c0.2-0.8,0.4-1.4,0.8-1.7c0.4-0.4,1.1-0.6,1.9-0.6h21.1c5.2,0,8.9,1,11,3.1c2.1,2.1,2.8,5.3,1.9,9.7l-3.8,19.6
			c-0.8,4.3-2.8,7.6-5.7,9.7C329.6,176.6,325.5,177.7,320.3,177.7z"/>
		<path class="st0" d="M375,177.7h-29.1c-0.8,0-1.3-0.2-1.7-0.5c-0.3-0.4-0.3-1-0.2-1.8l7.9-40.6c0.2-0.8,0.4-1.4,0.8-1.7
			c0.4-0.4,1.1-0.6,1.9-0.6h29.1c0.8,0,1.3,0.2,1.6,0.6c0.3,0.3,0.4,0.9,0.2,1.7l-1.4,7.3c-0.2,0.8-0.5,1.4-0.9,1.8
			c-0.4,0.3-1,0.5-1.8,0.5h-17.3l-0.9,4.8h12.2c0.8,0,1.3,0.2,1.6,0.6c0.3,0.3,0.4,0.9,0.2,1.7l-1.3,6.7c-0.2,0.8-0.5,1.4-0.9,1.8
			c-0.4,0.3-1,0.5-1.8,0.5h-12.2l-1.1,5.4h17.3c0.8,0,1.3,0.2,1.6,0.6c0.3,0.3,0.4,0.9,0.2,1.7l-1.4,7.3c-0.2,0.8-0.5,1.4-0.9,1.8
			C376.4,177.5,375.8,177.7,375,177.7z"/>
		<path class="st0" d="M405.6,177.7h-19.8c-0.8,0-1.3-0.2-1.7-0.5c-0.3-0.4-0.3-1-0.2-1.8l1.4-7.3c0.2-0.8,0.4-1.4,0.8-1.7
			c0.4-0.4,1.1-0.6,1.9-0.6H405c0.5,0,1-0.2,1.3-0.5c0.4-0.4,0.6-0.8,0.7-1.3c0.1-0.7,0.1-1.2-0.1-1.6c-0.2-0.3-0.5-0.5-1.1-0.6
			l-9.1-1.3c-2.8-0.4-5-1.4-6.5-2.9c-1.5-1.5-1.8-4-1.2-7.5l1.3-6.6c0.7-3.6,2.4-6.3,5-8.1c2.7-1.9,6-2.9,10.1-2.9h17.6
			c0.8,0,1.3,0.2,1.6,0.6c0.3,0.3,0.4,0.9,0.2,1.7l-1.5,7.5c-0.2,0.8-0.5,1.4-0.9,1.8c-0.4,0.3-1,0.5-1.8,0.5H406
			c-0.5,0-1,0.2-1.4,0.6c-0.4,0.3-0.6,0.8-0.7,1.3s-0.1,1,0.2,1.4c0.2,0.4,0.6,0.6,1.1,0.6l9.1,1.3c2.8,0.4,5,1.4,6.5,2.9
			s1.9,4,1.2,7.5l-1.3,6.6c-0.7,3.6-2.4,6.3-5.1,8.2C413,176.7,409.6,177.7,405.6,177.7z"/>
		<path class="st0" d="M426.7,177.7c-0.8,0-1.3-0.2-1.7-0.5c-0.3-0.4-0.3-1-0.2-1.8l1.5-7.5c0.2-0.8,0.4-1.4,0.8-1.7
			c0.4-0.4,1.1-0.6,1.9-0.6h6.2l4.1-21.1h-6.2c-0.8,0-1.3-0.2-1.7-0.5c-0.3-0.4-0.3-1-0.2-1.8l1.5-7.6c0.2-0.8,0.4-1.4,0.8-1.7
			c0.4-0.4,1.1-0.6,1.9-0.6h26.7c0.8,0,1.3,0.2,1.6,0.6c0.3,0.3,0.4,0.9,0.2,1.7l-1.5,7.6c-0.2,0.8-0.5,1.4-0.9,1.8
			c-0.4,0.3-1,0.5-1.8,0.5h-6.1l-4.1,21.1h6.1c0.8,0,1.3,0.2,1.6,0.6c0.3,0.3,0.4,0.9,0.2,1.7l-1.5,7.5c-0.2,0.8-0.5,1.4-0.9,1.8
			c-0.4,0.3-1,0.5-1.8,0.5H426.7z"/>
		<path class="st0" d="M497.9,177.7h-19.8c-5.2,0-8.9-1-11.1-3.1c-2.1-2.1-2.7-5.3-1.9-9.7l3.8-19.6c0.8-4.3,2.7-7.6,5.6-9.7
			c3-2.1,7.1-3.1,12.3-3.1h15.7c0.8,0,1.3,0.2,1.6,0.6c0.3,0.3,0.4,0.9,0.2,1.7l-1.5,7.6c-0.2,0.8-0.5,1.4-0.9,1.8
			c-0.4,0.3-1,0.5-1.8,0.5h-13c-1.3,0-2.3,0.3-3,0.8c-0.7,0.5-1.2,1.3-1.4,2.3l-2.9,15c-0.2,1-0.1,1.8,0.2,2.3
			c0.4,0.5,1.1,0.8,2.1,0.8h6.1l1.9-9.8c0.2-0.8,0.4-1.4,0.8-1.7c0.4-0.4,1.1-0.6,1.9-0.6h9.7c0.8,0,1.3,0.2,1.6,0.6
			c0.3,0.3,0.4,0.9,0.2,1.7l-3.8,19.4c-0.2,0.8-0.5,1.4-0.9,1.8C499.3,177.5,498.7,177.7,497.9,177.7z"/>
		<path class="st0" d="M519.5,177.7h-9.4c-0.8,0-1.3-0.2-1.7-0.5c-0.3-0.4-0.3-1-0.2-1.8l7.9-40.6c0.2-0.8,0.4-1.4,0.8-1.7
			c0.5-0.4,1.1-0.6,1.9-0.6h6.5c0.8,0,1.4,0.1,1.9,0.4c0.5,0.3,1,0.7,1.4,1.3l9.4,13.9l2.6-13.4c0.2-0.8,0.4-1.4,0.8-1.7
			c0.4-0.4,1.1-0.6,1.9-0.6h9.4c0.8,0,1.3,0.2,1.6,0.6c0.3,0.3,0.4,0.9,0.2,1.7l-7.9,40.6c-0.2,0.8-0.5,1.4-0.9,1.8
			c-0.4,0.3-1,0.5-1.8,0.5h-9.4c-0.8,0-1.3-0.2-1.7-0.5c-0.3-0.4-0.3-1-0.2-1.8l1.5-7.7l-8.2-13l-4,20.7c-0.2,0.8-0.5,1.4-0.9,1.8
			C520.9,177.5,520.3,177.7,519.5,177.7z"/>
		<path class="st0" d="M297.5,181.8h249c0.8,0,1.2,1.3,0.8,3l-1.2,6c-0.3,1.7-1.2,3-2,3h-249c-0.8,0-1.2-1.3-0.8-3l1.2-6
			C295.8,183.1,296.7,181.8,297.5,181.8z"/>
		<path class="st0" d="M310.2,116.7h249c0.8,0,1.2,1.3,0.8,3l-1.2,6c-0.3,1.7-1.2,3-2,3h-249c-0.8,0-1.2-1.3-0.8-3l1.2-6
			C308.5,118,309.4,116.7,310.2,116.7z"/>
	</g>
	<g>
		<path class="st1" d="M57.6,55.5h508.5c14.3,0,24.2,8.6,22.1,19.2L566,188.9c-2.1,10.6-15.3,19.2-29.6,19.2H27.8
			c-14.3,0-24.2-8.6-22.1-19.2L28,74.7C30.1,64.1,43.3,55.5,57.6,55.5z"/>
		<g>
			<path class="st2" d="M56.9,102c-2.2,0-3.9-0.6-4.9-1.7l-0.1-0.1l-0.1-0.1c-0.9-1.3-1.1-3-0.7-5.2l14.9-76.1
				c0.4-2.1,1.2-3.6,2.4-4.6c1.3-1.1,3-1.6,5.1-1.6H113c10.6,0,17.9,2.2,22.4,6.6c4.6,4.5,6.1,11.4,4.3,20.3L132.5,76
				c-1.7,8.8-5.6,15.4-11.7,19.7c-5.9,4.2-14,6.3-24.3,6.3H56.9z M97.6,74.8c1.2,0,2.1-0.3,2.7-0.8c0.7-0.6,1.2-1.6,1.5-3l5.6-28.5
				c0.3-1.4,0.1-2,0-2.1l-0.1-0.1l-0.1-0.1c-0.1-0.1-0.5-0.4-1.8-0.4H93.5l-6.8,34.9H97.6z"/>
			<path class="st1" d="M113,14.9c9.8,0,16.7,2,20.6,5.9c4,3.9,5.2,9.9,3.6,18.1L130,75.6c-1.6,8.1-5.2,14.2-10.7,18.1
				c-5.5,3.9-13.1,5.9-22.9,5.9H56.9c-1.5,0-2.5-0.3-3.1-0.9c-0.5-0.7-0.6-1.8-0.3-3.3l14.9-76.1c0.3-1.5,0.8-2.5,1.6-3.2
				c0.8-0.7,2-1.1,3.5-1.1H113 M83.6,77.3h14c1.9,0,3.3-0.5,4.4-1.4c1.1-0.9,1.9-2.4,2.3-4.3l5.6-28.6c0.4-2,0.2-3.4-0.6-4.2
				c-0.7-0.9-2-1.4-3.8-1.4h-14L83.6,77.3 M113,9.9H73.4c-2.7,0-5,0.8-6.7,2.2c-1.6,1.4-2.7,3.4-3.2,6L48.6,94.3
				c-0.6,2.9-0.2,5.2,1.1,7.1l0.2,0.3l0.2,0.3c1.6,1.7,3.8,2.5,6.8,2.5h39.6c10.8,0,19.5-2.3,25.8-6.8c6.6-4.7,10.9-11.8,12.7-21.2
				l7.2-36.6c1.9-9.9,0.2-17.5-5.1-22.6C132.1,12.3,124.2,9.9,113,9.9L113,9.9z M95.6,42.4h9.3l-5.5,28.2c-0.2,0.9-0.5,1.4-0.6,1.5
				l-0.1,0.1l-0.1,0.1c0,0,0,0,0,0c0,0-0.3,0.1-1.1,0.1h-7.9L95.6,42.4L95.6,42.4z"/>
		</g>
		<g>
			<path class="st2" d="M192,102c-2.2,0-3.9-0.6-4.9-1.7l-0.1-0.1l-0.1-0.1c-0.9-1.3-1.1-3-0.7-5.2l3.5-18c0.3-1.4,0.1-1.9,0.1-1.9
				l-0.1-0.1c-0.1,0-0.4-0.1-1-0.1h-14.4l-4.1,21c-0.4,2.1-1.3,3.7-2.6,4.7c-1.2,1-2.9,1.5-5,1.5h-18.1c-2.2,0-3.9-0.6-4.9-1.7
				l-0.1-0.1l-0.1-0.1c-0.9-1.3-1.1-3-0.7-5.2l14.9-76.1c0.4-2.1,1.2-3.6,2.4-4.6c1.3-1.1,3-1.6,5.1-1.6h39.1c9.7,0,16,2.2,19.1,6.6
				c3,4.1,4,9.5,2.7,16l-1.1,5.4c-0.7,3.6-1.9,6.7-3.5,9.3c-0.6,1-1.3,1.9-2.2,2.7c2.2,1.1,3.9,2.6,5.3,4.7
				c2.5,3.5,3.2,8.1,2.1,13.7l-4.9,24.9c-0.4,2.1-1.3,3.6-2.5,4.7c-1.2,1-2.9,1.5-5,1.5H192z M185.1,48.6c1.2,0,2.1-0.2,2.5-0.7
				c0.6-0.7,1-1.7,1.2-2.8l0.8-4c0.2-1,0.2-1.8-0.1-2.3l0,0c-0.1-0.1-0.5-0.2-1.5-0.2h-6.8l-2,10H185.1z"/>
			<path class="st1" d="M200.1,14.9c8.8,0,14.4,1.8,17,5.5c2.7,3.6,3.4,8.3,2.3,14.1l-1.1,5.4c-0.6,3.3-1.7,6.1-3.2,8.5
				c-1.4,2.3-3.4,3.9-6,4.9c4.1,0.5,7.2,2.2,9.2,5.2c2.1,3,2.6,6.9,1.7,11.9l-4.9,24.9c-0.3,1.5-0.9,2.6-1.7,3.3
				c-0.8,0.6-1.9,0.9-3.4,0.9H192c-1.5,0-2.5-0.3-3.1-0.9c-0.5-0.7-0.6-1.8-0.3-3.3l3.5-18c0.3-1.7,0.2-3-0.3-3.8
				c-0.5-0.9-1.5-1.3-3.2-1.3h-16.4l-4.5,23c-0.3,1.5-0.9,2.6-1.7,3.3c-0.8,0.6-1.9,0.9-3.4,0.9h-18.1c-1.5,0-2.5-0.3-3.1-0.9
				c-0.5-0.7-0.6-1.8-0.3-3.3L156,19.2c0.3-1.5,0.8-2.5,1.6-3.2c0.8-0.7,2-1.1,3.5-1.1H200.1 M176.3,51.1h8.8c2,0,3.5-0.5,4.4-1.5
				c0.9-1.1,1.5-2.4,1.8-4l0.8-4c0.3-1.6,0.2-2.9-0.3-3.9c-0.5-1.1-1.8-1.6-3.8-1.6h-8.8L176.3,51.1 M200.1,9.9H161
				c-2.7,0-4.9,0.7-6.7,2.2c-1.6,1.4-2.7,3.4-3.3,6.1l-14.9,76.1c-0.6,2.9-0.2,5.3,1.1,7.1l0.2,0.3l0.2,0.3c1.6,1.7,3.8,2.5,6.8,2.5
				h18.1c2.7,0,4.9-0.7,6.6-2.1c1.7-1.5,2.9-3.5,3.4-6.2l3.7-19H187l-3.3,17.1c-0.6,2.8-0.2,5.2,1.1,7.1l0.2,0.3l0.2,0.3
				c1.6,1.7,3.8,2.5,6.8,2.5h18.2c2.7,0,4.9-0.7,6.6-2.1c1.7-1.5,2.9-3.5,3.4-6.2l4.9-24.9c1.2-6.3,0.4-11.5-2.5-15.7
				c-1-1.5-2.2-2.8-3.6-3.8c0.2-0.3,0.4-0.5,0.5-0.8c1.8-2.9,3.1-6.3,3.8-10.1l1.1-5.4c1.4-7.2,0.3-13.2-3.1-18
				C217.6,12.4,210.7,9.9,200.1,9.9L200.1,9.9z M183.3,41.1h3.8l-0.7,3.6c-0.1,0.6-0.3,1-0.5,1.4c-0.2,0-0.4,0.1-0.8,0.1h-2.7
				L183.3,41.1L183.3,41.1z"/>
		</g>
		<g>
			<path class="st2" d="M276.8,102c-2.3,0-3.9-0.5-5.1-1.6l-0.1-0.1l-0.1-0.1c-1.1-1.3-1.4-3.1-0.9-5.3l2.6-13.5h-15.7l-2.8,14.4
				c-0.4,2.1-1.3,3.7-2.5,4.7c-1.2,1-2.9,1.5-5,1.5H230c-2.2,0-3.9-0.6-4.9-1.7l-0.1-0.1l-0.1-0.1c-0.9-1.3-1.1-3-0.7-5.2l6.1-31
				c0.5-2.5,1.4-5.4,2.8-8.6c1.4-3.2,3.4-6.8,5.7-11l15.4-26.7c0.9-1.7,2.1-3,3.6-3.8c1.6-0.9,3.3-1.3,5.3-1.3h31.6
				c2,0,3.7,0.5,4.9,1.4c1,0.7,2.3,2.1,2.7,4.6l5,26.6c0.8,4.2,1.3,7.9,1.4,11.1c0.2,3.2,0,6.1-0.5,8.7l-6,31
				c-0.4,2.1-1.3,3.7-2.6,4.7c-1.2,1-2.9,1.5-5,1.5H276.8z M276.5,55l-1.7-14.9h-2.2c-0.1,0.1-0.3,0.3-0.6,0.7L264.9,55H276.5z"/>
			<path class="st1" d="M294.6,14.9c1.5,0,2.6,0.3,3.5,0.9c0.9,0.6,1.4,1.6,1.7,2.9l5,26.7c0.8,4.1,1.2,7.6,1.3,10.7
				c0.2,3.1,0.1,5.8-0.4,8.1l-6.1,31c-0.3,1.5-0.9,2.6-1.7,3.3c-0.8,0.6-1.9,0.9-3.4,0.9h-17.7c-1.6,0-2.7-0.3-3.3-0.9
				c-0.6-0.7-0.7-1.8-0.4-3.3l3.2-16.4h-20.8l-3.2,16.4c-0.3,1.5-0.9,2.6-1.7,3.3c-0.7,0.6-1.9,0.9-3.4,0.9H230
				c-1.5,0-2.5-0.3-3.1-0.9c-0.5-0.7-0.6-1.8-0.3-3.3l6.1-31c0.5-2.3,1.3-5.1,2.6-8.1c1.4-3.1,3.3-6.6,5.6-10.7l15.4-26.7
				c0.7-1.3,1.6-2.3,2.7-2.9c1.1-0.6,2.5-0.9,4.1-0.9H294.6 M260.8,57.5h18.4l-2-17.9c-0.2-0.7-0.4-1.2-0.8-1.5
				c-0.3-0.3-0.6-0.5-1.1-0.5h-2.9c-0.5,0-0.9,0.2-1.4,0.5c-0.4,0.3-0.8,0.8-1.2,1.5L260.8,57.5 M294.6,9.9H263
				c-2.4,0-4.6,0.5-6.5,1.6l-0.1,0l-0.1,0c-1.8,1.1-3.3,2.7-4.5,4.8L236.5,43c-2.4,4.2-4.4,8-5.8,11.1l0,0l0,0
				c-1.4,3.4-2.4,6.4-2.9,9.1l-6.1,31c-0.6,2.8-0.2,5.2,1.1,7.1l0.2,0.3l0.2,0.3c1.6,1.7,3.8,2.5,6.8,2.5h17.3
				c2.7,0,4.9-0.7,6.6-2.1c1.7-1.4,2.9-3.5,3.4-6.2l2.4-12.4h10.6l-2,10.5c-0.6,3-0.1,5.5,1.4,7.4l0.2,0.3l0.2,0.2
				c1.6,1.5,3.9,2.3,6.8,2.3h17.7c2.7,0,4.9-0.7,6.6-2.1c1.7-1.5,2.9-3.5,3.4-6.2l6.1-31c0.5-2.7,0.7-5.8,0.5-9.3
				c-0.1-3.3-0.6-7.1-1.4-11.4l-5-26.6c-0.5-3.3-2.2-5.1-3.6-6.1C299.3,10.6,297.2,9.9,294.6,9.9L294.6,9.9z M269,52.5l3.8-7.6
				l0.9,7.6H269L269,52.5z"/>
		</g>
		<g>
			<path class="st2" d="M340.9,102c-10.6,0-17.9-2.2-22.5-6.6c-4.6-4.5-6-11.4-4.2-20.4l7.2-36.7c1.7-8.8,5.6-15.4,11.6-19.6
				c6-4.2,14.2-6.3,24.5-6.3h29.4c2.3,0,3.9,0.7,4.9,2c1.1,1.2,1.4,3,0.9,5.2l-2.8,14.2c-0.4,2.1-1.3,3.7-2.6,4.7
				c-1.2,1-2.9,1.5-5,1.5h-24.4c-1.9,0-3.3,0.3-4.2,1c-0.9,0.6-1.4,1.5-1.6,2.8l-5.5,28.1c-0.3,1.4-0.1,2.1,0,2.4
				c0.3,0.3,1,0.4,1.8,0.4h9.3l3.2-16.3c0.4-2.1,1.2-3.6,2.4-4.6c1.3-1.1,3-1.6,5.1-1.6h18.2c2.3,0,3.9,0.7,4.9,2
				c1.1,1.2,1.4,3,0.9,5.2l-7.1,36.3c-0.4,2.1-1.3,3.7-2.5,4.7c-1.2,1-2.9,1.5-5,1.5H340.9z"/>
			<path class="st1" d="M386.8,14.9c1.5,0,2.5,0.4,3,1.1c0.6,0.6,0.7,1.7,0.4,3.2l-2.8,14.2c-0.3,1.5-0.9,2.6-1.7,3.3
				c-0.8,0.6-1.9,0.9-3.4,0.9h-24.4c-2.4,0-4.3,0.5-5.7,1.5c-1.4,0.9-2.2,2.4-2.6,4.3l-5.5,28.1c-0.4,2-0.2,3.4,0.4,4.3
				c0.8,0.9,2,1.4,3.8,1.4h11.4l3.6-18.3c0.3-1.5,0.8-2.5,1.6-3.2c0.8-0.7,2-1.1,3.5-1.1h18.2c1.5,0,2.5,0.4,3,1.1
				c0.6,0.6,0.7,1.7,0.4,3.2L383,95.3c-0.3,1.5-0.9,2.6-1.7,3.3c-0.8,0.6-1.9,0.9-3.4,0.9h-37c-9.8,0-16.7-2-20.7-5.9
				c-3.9-3.9-5.1-9.9-3.5-18.1l7.2-36.7c1.6-8.1,5.1-14.2,10.6-18.1c5.5-3.9,13.2-5.9,23-5.9H386.8 M386.8,9.9h-29.4
				c-10.8,0-19.5,2.3-25.9,6.8c-6.5,4.7-10.8,11.8-12.6,21.2l-7.2,36.7c-1.9,9.8-0.3,17.4,4.9,22.6l0,0l0,0c5,4.9,12.9,7.3,24.2,7.3
				h37c2.7,0,4.9-0.7,6.6-2.1c1.7-1.5,2.9-3.5,3.4-6.2L395,60c0.7-3.6-0.3-5.9-1.4-7.3c-1.1-1.4-3.1-2.9-6.9-2.9h-18.2
				c-2.7,0-4.9,0.7-6.7,2.2c-1.6,1.4-2.7,3.4-3.3,6l-2.8,14.3h-6.6l5.4-27.9c0.1-0.6,0.3-1,0.5-1.2l0.1,0l0.1,0
				c0.2-0.2,0.9-0.5,2.7-0.5h24.4c2.7,0,4.9-0.7,6.6-2.1c1.7-1.4,2.9-3.5,3.4-6.2l2.8-14.2c0.7-3.6-0.3-5.9-1.4-7.3
				C392.6,11.5,390.5,9.9,386.8,9.9L386.8,9.9z"/>
		</g>
		<g>
			<path class="st2" d="M445.9,102c-2.3,0-3.9-0.5-5.1-1.6l-0.1-0.1l-0.1-0.1c-1-1.3-1.4-3.1-0.9-5.3l2.6-13.5h-15.7l-2.8,14.4
				c-0.4,2.1-1.3,3.7-2.6,4.7c-1.2,1-2.9,1.5-5,1.5h-17.3c-2.2,0-3.9-0.6-4.9-1.7l-0.1-0.1l-0.1-0.1c-0.9-1.3-1.1-3-0.7-5.2l6-31
				c0.5-2.5,1.4-5.4,2.8-8.6c1.4-3.2,3.4-6.8,5.7-11l15.4-26.7c0.9-1.7,2.1-3,3.6-3.8c1.6-0.9,3.3-1.3,5.3-1.3h31.6
				c2,0,3.7,0.5,4.9,1.4c1,0.7,2.3,2.1,2.7,4.6l5,26.6c0.8,4.2,1.3,7.9,1.4,11.1c0.2,3.2,0,6.1-0.5,8.7l-6,31
				c-0.4,2.1-1.3,3.6-2.5,4.7c-1.2,1-2.9,1.5-5,1.5H445.9z M445.6,55l-1.7-14.9h-2.2c-0.1,0.1-0.3,0.3-0.6,0.7L434,55H445.6z"/>
			<path class="st1" d="M463.7,14.9c1.5,0,2.6,0.3,3.5,0.9c0.9,0.6,1.4,1.6,1.7,2.9l5,26.7c0.8,4.1,1.2,7.6,1.3,10.7
				c0.2,3.1,0.1,5.8-0.4,8.1l-6.1,31c-0.3,1.5-0.9,2.6-1.7,3.3c-0.8,0.6-1.9,0.9-3.4,0.9h-17.7c-1.6,0-2.7-0.3-3.3-0.9
				c-0.6-0.7-0.7-1.8-0.4-3.3l3.2-16.4h-20.8l-3.2,16.4c-0.3,1.5-0.9,2.6-1.7,3.3c-0.8,0.6-1.9,0.9-3.4,0.9h-17.3
				c-1.5,0-2.5-0.3-3.1-0.9c-0.5-0.7-0.6-1.8-0.3-3.3l6.1-31c0.5-2.3,1.3-5.1,2.6-8.1c1.4-3.1,3.3-6.6,5.6-10.7l15.4-26.7
				c0.7-1.3,1.6-2.3,2.7-2.9c1.1-0.6,2.5-0.9,4.1-0.9H463.7 M429.9,57.5h18.4l-2-17.9c-0.2-0.7-0.4-1.2-0.8-1.5
				c-0.3-0.3-0.6-0.5-1.1-0.5h-2.9c-0.5,0-0.9,0.2-1.4,0.5c-0.4,0.3-0.8,0.8-1.2,1.5L429.9,57.5 M463.7,9.9h-31.6
				c-2.4,0-4.6,0.5-6.5,1.6l-0.1,0l-0.1,0c-1.8,1.1-3.3,2.7-4.5,4.8L405.6,43c-2.4,4.2-4.4,8-5.8,11.1l0,0l0,0
				c-1.5,3.4-2.4,6.4-2.9,9.1l-6,31c-0.6,2.8-0.2,5.2,1.1,7.1l0.2,0.3l0.2,0.3c1.6,1.7,3.8,2.5,6.8,2.5h17.3c2.7,0,4.9-0.7,6.6-2.1
				c1.7-1.5,2.9-3.5,3.4-6.2l2.4-12.4h10.6l-2,10.5c-0.7,3.7,0.4,6.1,1.4,7.4l0.2,0.3l0.2,0.2c1.6,1.5,3.9,2.3,6.8,2.3h17.7
				c2.7,0,4.9-0.7,6.6-2.1c1.7-1.5,2.9-3.5,3.4-6.2l6.1-31c0.5-2.7,0.7-5.9,0.5-9.3c-0.1-3.3-0.6-7.1-1.4-11.4l-5-26.6
				c-0.5-3.3-2.2-5.1-3.6-6.1C468.5,10.6,466.3,9.9,463.7,9.9L463.7,9.9z M438.1,52.5l3.8-7.6l0.9,7.6H438.1L438.1,52.5z"/>
		</g>
		<g>
			<path class="st2" d="M532.8,102c-2.2,0-3.9-0.6-4.9-1.7l-0.1-0.1l-0.1-0.1c-0.9-1.3-1.1-3-0.7-5.2l2.6-13.5l-11.5-18.2l-6.4,32.6
				c-0.4,2.1-1.3,3.7-2.6,4.7c-1.2,1-2.9,1.5-5,1.5h-17.6c-2.2,0-3.9-0.6-4.9-1.7l-0.1-0.1l-0.1-0.1c-0.9-1.3-1.1-3-0.7-5.2
				l14.9-76.1c0.4-2.1,1.2-3.6,2.4-4.6c1.3-1.1,3-1.6,5.1-1.6h12.2c1.9,0,3.5,0.3,4.8,1c1.3,0.6,2.6,1.7,3.6,3.3l14.3,21.1l3.7-19.1
				c0.4-2.1,1.2-3.6,2.4-4.6c1.3-1.1,3-1.6,5.1-1.6h17.6c2.3,0,3.9,0.7,4.9,2c1.1,1.2,1.4,3,0.9,5.2l-14.9,76.1
				c-0.4,2.1-1.3,3.7-2.6,4.7c-1.2,1-2.9,1.5-5,1.5H532.8z"/>
			<path class="st1" d="M566.9,14.9c1.5,0,2.5,0.4,3,1.1c0.6,0.6,0.7,1.7,0.4,3.2l-14.9,76.1c-0.3,1.5-0.9,2.6-1.7,3.3
				c-0.8,0.6-1.9,0.9-3.4,0.9h-17.6c-1.5,0-2.5-0.3-3.1-0.9c-0.5-0.7-0.6-1.8-0.3-3.3l2.8-14.4l-15.3-24.3l-7.6,38.8
				c-0.3,1.5-0.9,2.6-1.7,3.3c-0.8,0.6-1.9,0.9-3.4,0.9h-17.6c-1.5,0-2.5-0.3-3.1-0.9c-0.5-0.7-0.6-1.8-0.3-3.3l14.9-76.1
				c0.3-1.5,0.8-2.5,1.6-3.2c0.8-0.7,2-1.1,3.5-1.1h12.2c1.5,0,2.7,0.2,3.6,0.7c1,0.5,1.9,1.3,2.7,2.5l17.7,26.1l4.9-25
				c0.3-1.5,0.8-2.5,1.6-3.2c0.8-0.7,2-1.1,3.5-1.1H566.9 M566.9,9.9h-17.6c-2.7,0-4.9,0.7-6.7,2.2c-1.6,1.4-2.7,3.4-3.3,6
				l-2.6,13.2l-11-16.1c-1.3-1.9-2.8-3.3-4.6-4.2c-1.6-0.8-3.5-1.2-5.8-1.2h-12.2c-2.7,0-4.9,0.7-6.7,2.2c-1.6,1.4-2.7,3.4-3.3,6
				l-14.9,76.1c-0.6,2.9-0.2,5.3,1.1,7.1l0.2,0.3l0.2,0.3c1.6,1.7,3.8,2.5,6.8,2.5h17.6c2.7,0,4.9-0.7,6.6-2.1
				c1.7-1.5,2.9-3.5,3.4-6.2l5.2-26.4l7.6,12l-2.4,12.5c-0.6,2.9-0.2,5.2,1.1,7.1l0.2,0.3l0.2,0.3c1.6,1.7,3.8,2.5,6.8,2.5h17.6
				c2.7,0,4.9-0.7,6.6-2.1c1.7-1.5,2.9-3.5,3.4-6.2l14.9-76.1c0.7-3.7-0.3-5.9-1.4-7.3C572.7,11.5,570.7,9.9,566.9,9.9L566.9,9.9z"
				/>
		</g>
		<path class="st2" d="M110.2,109.6h16.7c1.4,0,2.4,0.3,2.8,1c0.6,0.6,0.7,1.6,0.4,3l-8.5,43.6c-0.5,2.4-1,4.6-1.7,6.7
			c-0.5,2-1.6,4.4-3.1,7.2l-8.6,15.3c-0.6,1.1-1.3,2.1-2.3,2.9c-0.8,0.7-1.8,1.1-3,1.1H88.1c-1.2,0-2.2-0.3-3.1-0.8
			c-0.9-0.5-1.3-1.4-1.4-2.6L82,168.8c-0.1-0.8-0.3-1.2-0.6-1.5c-0.2-0.3-0.6-0.4-1-0.4h-1c-0.4,0-0.9,0.1-1.3,0.4
			c-0.3,0.2-0.7,0.7-1.1,1.5l-8.9,18.3c-0.5,1.1-1.3,2-2.2,2.6c-0.9,0.5-2,0.8-3.2,0.8H47.9c-1.2,0-2.2-0.4-2.9-1.1
			c-0.7-0.8-1.1-1.7-1.2-2.9L41.1,171c-0.4-2.8-0.6-5.2-0.4-7.2c0.3-2.1,0.6-4.3,1.1-6.7l8.5-43.4c0.3-1.4,0.8-2.4,1.5-3
			c0.8-0.7,1.9-1,3.3-1h17.3c1.4,0,2.4,0.3,2.8,1c0.6,0.6,0.7,1.6,0.4,3L67.6,155l9.3-14.2c0.8-1.3,1.8-2.2,2.9-2.7
			c1.1-0.5,2.3-0.8,3.8-0.8h4.7c1.4,0,2.6,0.3,3.4,0.8c0.9,0.5,1.5,1.4,1.8,2.7l3.8,14.2l8.1-41.4c0.3-1.4,0.8-2.4,1.5-3
			C107.7,109.9,108.8,109.6,110.2,109.6z"/>
		<path class="st2" d="M185.8,190.5h-52.1c-1.4,0-2.4-0.3-3-0.9c-0.5-0.7-0.6-1.7-0.3-3.1l14.2-72.8c0.3-1.4,0.8-2.4,1.5-3
			c0.8-0.7,1.9-1,3.3-1h52.1c1.4,0,2.4,0.3,2.8,1c0.6,0.6,0.7,1.6,0.4,3l-2.6,13.1c-0.3,1.4-0.8,2.5-1.6,3.1
			c-0.7,0.6-1.8,0.9-3.2,0.9h-31l-1.7,8.7h21.9c1.4,0,2.4,0.3,2.8,1c0.6,0.6,0.7,1.6,0.4,3l-2.3,12c-0.3,1.4-0.8,2.5-1.6,3.1
			c-0.7,0.6-1.8,0.9-3.2,0.9h-21.9l-1.9,9.7h31c1.4,0,2.4,0.3,2.8,1c0.6,0.6,0.7,1.6,0.4,3l-2.6,13.1c-0.3,1.4-0.8,2.5-1.6,3.1
			C188.3,190.2,187.2,190.5,185.8,190.5z"/>
		<path class="st2" d="M234.7,158.1l-2.6,13.3h14.6c1.4,0,2.5-0.4,3.4-1.1c0.9-0.8,1.5-1.9,1.8-3.4l0.9-4.4c0.3-1.5,0.1-2.6-0.5-3.3
			c-0.5-0.8-1.5-1.1-2.9-1.1H234.7z M240.4,128.7l-2.4,12.1h9.5c1.4,0,2.5-0.4,3.4-1.1c0.9-0.8,1.5-1.9,1.8-3.4l0.6-3.1
			c0.3-1.5,0.1-2.6-0.5-3.4c-0.5-0.7-1.5-1.1-2.9-1.1H240.4z M250.3,190.5h-43.1c-1.4,0-2.4-0.3-3-0.9c-0.5-0.7-0.6-1.7-0.3-3.1
			l14.2-72.8c0.3-1.4,0.8-2.4,1.5-3c0.8-0.7,1.9-1,3.3-1h35.8c7.3,0,12.5,1.4,15.5,4.3c3,2.8,3.9,7.1,2.8,12.9l-1.1,5.4
			c-0.6,3.1-1.7,5.7-3.2,7.8c-1.4,1.9-3.4,3.4-5.8,4.4c4.7,0.4,7.9,2.1,9.7,4.9c1.8,2.8,2.1,7,1.1,12.5l-2,10.3
			c-1.2,6.3-3.9,10.9-8.1,13.9C263.5,189,257.7,190.5,250.3,190.5z"/>
		<path class="st2" d="M310.6,139.5l-4.2,21.3h7.5c1,0,1.8-0.3,2.3-0.8c0.6-0.5,1-1.3,1.2-2.3l3-15.2c0.2-1,0.1-1.8-0.3-2.3
			c-0.4-0.5-1-0.8-2-0.8H310.6z M313.3,172.7h-21.1c-0.8,0-1.3-0.2-1.7-0.5c-0.3-0.4-0.3-1-0.2-1.8l7.9-40.6
			c0.2-0.8,0.4-1.4,0.8-1.7c0.4-0.4,1.1-0.6,1.9-0.6h21.1c5.2,0,8.9,1,11,3.1c2.1,2.1,2.8,5.3,1.9,9.7l-3.8,19.6
			c-0.8,4.3-2.8,7.6-5.7,9.7C322.6,171.6,318.5,172.7,313.3,172.7z"/>
		<path class="st2" d="M368,172.7h-29.1c-0.8,0-1.3-0.2-1.7-0.5c-0.3-0.4-0.3-1-0.2-1.8l7.9-40.6c0.2-0.8,0.4-1.4,0.8-1.7
			c0.4-0.4,1.1-0.6,1.9-0.6h29.1c0.8,0,1.3,0.2,1.6,0.6c0.3,0.3,0.4,0.9,0.2,1.7l-1.4,7.3c-0.2,0.8-0.5,1.4-0.9,1.8
			c-0.4,0.3-1,0.5-1.8,0.5h-17.3l-0.9,4.8h12.2c0.8,0,1.3,0.2,1.6,0.6c0.3,0.3,0.4,0.9,0.2,1.7l-1.3,6.7c-0.2,0.8-0.5,1.4-0.9,1.8
			c-0.4,0.3-1,0.5-1.8,0.5h-12.2l-1.1,5.4h17.3c0.8,0,1.3,0.2,1.6,0.6c0.3,0.3,0.4,0.9,0.2,1.7l-1.4,7.3c-0.2,0.8-0.5,1.4-0.9,1.8
			C369.4,172.5,368.8,172.7,368,172.7z"/>
		<path class="st2" d="M398.6,172.7h-19.8c-0.8,0-1.3-0.2-1.7-0.5c-0.3-0.4-0.3-1-0.2-1.8l1.4-7.3c0.2-0.8,0.4-1.4,0.8-1.7
			c0.4-0.4,1.1-0.6,1.9-0.6H398c0.5,0,1-0.2,1.3-0.5c0.4-0.4,0.6-0.8,0.7-1.3c0.1-0.7,0.1-1.2-0.1-1.6c-0.2-0.3-0.5-0.5-1.1-0.6
			l-9.1-1.3c-2.8-0.4-5-1.4-6.5-2.9c-1.5-1.5-1.8-4-1.2-7.5l1.3-6.6c0.7-3.6,2.4-6.3,5-8.1c2.7-1.9,6-2.9,10.1-2.9h17.6
			c0.8,0,1.3,0.2,1.6,0.6c0.3,0.3,0.4,0.9,0.2,1.7l-1.5,7.5c-0.2,0.8-0.5,1.4-0.9,1.8c-0.4,0.3-1,0.5-1.8,0.5H399
			c-0.5,0-1,0.2-1.4,0.6c-0.4,0.3-0.6,0.8-0.7,1.3s-0.1,1,0.2,1.4c0.2,0.4,0.6,0.6,1.1,0.6l9.1,1.3c2.8,0.4,5,1.4,6.5,2.9
			s1.9,4,1.2,7.5l-1.3,6.6c-0.7,3.6-2.4,6.3-5.1,8.2C406,171.7,402.6,172.7,398.6,172.7z"/>
		<path class="st2" d="M419.7,172.7c-0.8,0-1.3-0.2-1.7-0.5c-0.3-0.4-0.3-1-0.2-1.8l1.5-7.5c0.2-0.8,0.4-1.4,0.8-1.7
			c0.4-0.4,1.1-0.6,1.9-0.6h6.2l4.1-21.1h-6.2c-0.8,0-1.3-0.2-1.7-0.5c-0.3-0.4-0.3-1-0.2-1.8l1.5-7.6c0.2-0.8,0.4-1.4,0.8-1.7
			c0.4-0.4,1.1-0.6,1.9-0.6h26.7c0.8,0,1.3,0.2,1.6,0.6c0.3,0.3,0.4,0.9,0.2,1.7l-1.5,7.6c-0.2,0.8-0.5,1.4-0.9,1.8
			c-0.4,0.3-1,0.5-1.8,0.5h-6.1l-4.1,21.1h6.1c0.8,0,1.3,0.2,1.6,0.6c0.3,0.3,0.4,0.9,0.2,1.7l-1.5,7.5c-0.2,0.8-0.5,1.4-0.9,1.8
			c-0.4,0.3-1,0.5-1.8,0.5H419.7z"/>
		<path class="st2" d="M490.9,172.7h-19.8c-5.2,0-8.9-1-11.1-3.1c-2.1-2.1-2.7-5.3-1.9-9.7l3.8-19.6c0.8-4.3,2.7-7.6,5.6-9.7
			c3-2.1,7.1-3.1,12.3-3.1h15.7c0.8,0,1.3,0.2,1.6,0.6c0.3,0.3,0.4,0.9,0.2,1.7l-1.5,7.6c-0.2,0.8-0.5,1.4-0.9,1.8
			c-0.4,0.3-1,0.5-1.8,0.5h-13c-1.3,0-2.3,0.3-3,0.8c-0.7,0.5-1.2,1.3-1.4,2.3l-2.9,15c-0.2,1-0.1,1.8,0.2,2.3
			c0.4,0.5,1.1,0.8,2.1,0.8h6.1l1.9-9.8c0.2-0.8,0.4-1.4,0.8-1.7c0.4-0.4,1.1-0.6,1.9-0.6h9.7c0.8,0,1.3,0.2,1.6,0.6
			c0.3,0.3,0.4,0.9,0.2,1.7l-3.8,19.4c-0.2,0.8-0.5,1.4-0.9,1.8C492.3,172.5,491.7,172.7,490.9,172.7z"/>
		<path class="st2" d="M512.5,172.7h-9.4c-0.8,0-1.3-0.2-1.7-0.5c-0.3-0.4-0.3-1-0.2-1.8l7.9-40.6c0.2-0.8,0.4-1.4,0.8-1.7
			c0.4-0.4,1.1-0.6,1.9-0.6h6.5c0.8,0,1.4,0.1,1.9,0.4c0.5,0.3,1,0.7,1.4,1.3l9.4,13.9l2.6-13.4c0.2-0.8,0.4-1.4,0.8-1.7
			c0.4-0.4,1.1-0.6,1.9-0.6h9.4c0.8,0,1.3,0.2,1.6,0.6c0.3,0.3,0.4,0.9,0.2,1.7l-7.9,40.6c-0.2,0.8-0.5,1.4-0.9,1.8
			c-0.4,0.3-1,0.5-1.8,0.5h-9.4c-0.8,0-1.3-0.2-1.7-0.5c-0.3-0.4-0.3-1-0.2-1.8l1.5-7.7l-8.2-13l-4,20.7c-0.2,0.8-0.5,1.4-0.9,1.8
			C513.9,172.5,513.3,172.7,512.5,172.7z"/>
		<path class="st2" d="M290.5,176.8h249c0.8,0,1.2,1.3,0.8,3l-1.2,6c-0.3,1.7-1.2,3-2,3h-249c-0.8,0-1.2-1.3-0.8-3l1.2-6
			C288.8,178.1,289.7,176.8,290.5,176.8z"/>
		<path class="st2" d="M303.2,111.7h249c0.8,0,1.2,1.3,0.8,3l-1.2,6c-0.3,1.7-1.2,3-2,3h-249c-0.8,0-1.2-1.3-0.8-3l1.2-6
			C301.5,113,302.4,111.7,303.2,111.7z"/>
	</g>
</g>
</svg>
