<?xml version="1.0" encoding="UTF-8" standalone="no"?>
<svg
   xmlns:dc="http://purl.org/dc/elements/1.1/"
   xmlns:cc="http://creativecommons.org/ns#"
   xmlns:rdf="http://www.w3.org/1999/02/22-rdf-syntax-ns#"
   xmlns:svg="http://www.w3.org/2000/svg"
   xmlns="http://www.w3.org/2000/svg"
   xmlns:sodipodi="http://sodipodi.sourceforge.net/DTD/sodipodi-0.dtd"
   xmlns:inkscape="http://www.inkscape.org/namespaces/inkscape"
   viewBox="0 0 313.03 120.61"
   version="1.1"
   id="svg1554"
   sodipodi:docname="fastly.svg"
   inkscape:version="0.92.4 (5da689c313, 2019-01-14)">
  <metadata
     id="metadata1558">
    <rdf:RDF>
      <cc:Work
         rdf:about="">
        <dc:format>image/svg+xml</dc:format>
        <dc:type
           rdf:resource="http://purl.org/dc/dcmitype/StillImage" />
      </cc:Work>
    </rdf:RDF>
  </metadata>
  <sodipodi:namedview
     pagecolor="#ffffff"
     bordercolor="#666666"
     borderopacity="1"
     objecttolerance="10"
     gridtolerance="10"
     guidetolerance="10"
     inkscape:pageopacity="0"
     inkscape:pageshadow="2"
     inkscape:window-width="3840"
     inkscape:window-height="2004"
     id="namedview1556"
     showgrid="false"
     inkscape:zoom="5.1774231"
     inkscape:cx="153.40564"
     inkscape:cy="82.443947"
     inkscape:window-x="-16"
     inkscape:window-y="-16"
     inkscape:window-maximized="1"
     inkscape:current-layer="svg1554" />
  <defs
     id="defs1530">
    <style
       id="style1528">.cls-1{fill:#32343a;}</style>
  </defs>
  <title
     id="title1532">fasly</title>
  <g
     id="Layer_2"
     data-name="Layer 2"
     style="fill:#000000">
    <g
       id="Layer_1-2"
       data-name="Layer 1"
       style="fill:#000000">
      <path
         class="cls-1"
         d="M311.07,42V29.86H277.38V42h8L273.58,71.12,261.73,42h8V29.86H236.19V42h8.05l20.92,51.67a18.07,18.07,0,0,1-17,11.66,43.66,43.66,0,0,1-6.46-.66l-1.48,14.76a57.57,57.57,0,0,0,11.85,1.22c14.76,0,24.54-13.44,30.45-27.72l20.66-50.82Z"
         id="path1534"
         style="fill:#000000" />
      <polygon
         class="cls-1"
         points="228 0 211.69 0 211.69 12.36 211.69 93.52 236.08 93.52 236.08 81.12 228 81.12 228 0"
         id="polygon1536"
         style="fill:#000000" />
      <path
         class="cls-1"
         d="M142.42,51.63c-8.23-1.81-9.3-3.47-9.3-6.57,0-2.18.92-6.2,8.52-6.2a69.85,69.85,0,0,1,12.51.92V42h12.37V29.86a99.07,99.07,0,0,0-25.84-3.69c-15.31,0-24.54,5.38-24.54,19.15,0,14.54,11.37,19.41,25.83,21.88,7.61,1.55,9.93,3.1,9.93,6.31,0,2.33-1.33,6.68-9.41,6.68a71.65,71.65,0,0,1-13.8-.92V77.09H116.1V89.31a115,115,0,0,0,27.83,4.21c15.31,0,22.62-7.38,22.62-21.44C166.52,57.17,154.45,54.32,142.42,51.63Z"
         id="path1538"
         style="fill:#000000" />
      <path
         class="cls-1"
         d="M104,26.57H87.72v4.76a33.15,33.15,0,0,0-11.07-4.2h0v-5.8h2V17.2H62.26v4.13h2V27h0a33.54,33.54,0,1,0,23.4,61.74l2.95,4.8h17.24V77.21H104ZM71.45,77.17V75.25h-2v1.92A17.28,17.28,0,0,1,53.25,60.86h2.11v-2H53.44a17.26,17.26,0,0,1,16.2-16.2v1.92h2V42.7A17.26,17.26,0,0,1,87.87,58.42V59h-2v2h2v.55A17.27,17.27,0,0,1,71.45,77.17Z"
         id="path1540"
         style="fill:#000000" />
      <path
         class="cls-1"
         d="M197,77.72c-6.72,0-6.13-2-6.13-8.38V42h12.77V29.86h-12.8V0H174.52V72.74c0,14.28,3.69,20.78,18.9,20.78a66.49,66.49,0,0,0,12.4-1.74l-2.44-14.57A32.45,32.45,0,0,1,197,77.72Z"
         id="path1542"
         style="fill:#000000" />
      <path
         class="cls-1"
         d="M77.8,51.41l-6.32,5.5a3,3,0,0,0-1,0,3.17,3.17,0,1,0,3.1,3.24v-.07a3.09,3.09,0,0,0,0-1l5.61-6.27Z"
         id="path1544"
         style="fill:#000000" />
      <path
         class="cls-1"
         d="M24.62,42H36.9V29.86H24.62V20.41c0-5.8,1.51-6.39,7.38-6.39a30.77,30.77,0,0,1,5.42.48L39.67,1.22A70,70,0,0,0,27.94,0C11.11,0,8.23,5.72,8.23,18.93V30L0,31.22V42H8.3V81.12H0v12.4H32.81V81.12H24.62Z"
         id="path1546"
         style="fill:#000000" />
      <path
         class="cls-1"
         d="M306.31,78.83A6.9,6.9,0,1,0,313,85.91v-.29A6.94,6.94,0,0,0,306.31,78.83Zm0,12.77a5.87,5.87,0,1,1,5.72-6v0A5.9,5.9,0,0,1,306.31,91.6Z"
         id="path1548"
         style="fill:#000000" />
      <path
         class="cls-1"
         d="M308.93,84.25c0-2.1-1.59-2.36-2.95-2.36h-2.44v7.38h1.33v-3h1.44l1.15,3h1.47l-1.36-3.13A1.74,1.74,0,0,0,308.93,84.25Zm-2.51.82h-1.59V83.15h1.48c.78,0,1.22.33,1.22,1s-.48,1-1.22,1Z"
         id="path1550"
         style="fill:#000000" />
    </g>
  </g>
</svg>
