<?xml version="1.0" encoding="utf-8"?>
<!-- Generator: Adobe Illustrator 22.0.0, SVG Export Plug-In . SVG Version: 6.00 Build 0)  -->
<svg version="1.1" id="Layer_1" xmlns="http://www.w3.org/2000/svg" xmlns:xlink="http://www.w3.org/1999/xlink" x="0px" y="0px"
	 viewBox="0 0 200 100" style="enable-background:new 0 0 200 100;" xml:space="preserve">
<style type="text/css">
	.st0{fill:#0F0D0E;}
</style>
<g>
	<path class="st0" d="M38.5,46.1H21.7c-0.4,0-0.8,0.4-0.8,0.8v8.2c0,0.4,0.4,0.8,0.8,0.8h6.6v10.2c0,0-1.5,0.5-5.5,0.5
		c-4.8,0-11.5-1.8-11.5-16.5c0-14.8,7-16.7,13.5-16.7c5.7,0,8.1,1,9.7,1.5c0.5,0.1,0.9-0.3,0.9-0.8l1.9-7.9c0-0.2-0.1-0.4-0.3-0.6
		c-0.6-0.5-4.5-2.6-14.2-2.6C11.5,23,0,27.7,0,50.7C0,73.6,13.2,77,24.3,77c9.2,0,14.8-3.9,14.8-3.9c0.2-0.1,0.3-0.4,0.3-0.6V46.9
		C39.3,46.5,39,46.1,38.5,46.1z"/>
	<path class="st0" d="M125.1,25.7c0-0.4-0.3-0.8-0.8-0.8h-9.5c-0.4,0-0.8,0.4-0.8,0.8c0,0,0,18.3,0,18.3H99.4V25.7
		c0-0.4-0.3-0.8-0.8-0.8h-9.5c-0.4,0-0.8,0.4-0.8,0.8v49.5c0,0.4,0.4,0.8,0.8,0.8h9.5c0.4,0,0.8-0.4,0.8-0.8V54h14.8
		c0,0,0,21.2,0,21.2c0,0.4,0.4,0.8,0.8,0.8h9.5c0.4,0,0.8-0.4,0.8-0.8V25.7z"/>
	<g>
		<g>
			<path class="st0" d="M56.4,32.2c0-3.4-2.7-6.2-6.1-6.2c-3.4,0-6.1,2.8-6.1,6.2c0,3.4,2.7,6.2,6.1,6.2
				C53.6,38.4,56.4,35.6,56.4,32.2z"/>
			<path class="st0" d="M55.7,64.8c0-1.3,0-22.9,0-22.9c0-0.4-0.4-0.8-0.8-0.8h-9.4c-0.4,0-0.8,0.4-0.8,0.9c0,0,0,27.5,0,32.7
				c0,1,0.6,1.2,1.4,1.2c0,0,4,0,8.5,0c0.9,0,1.2-0.5,1.2-1.3C55.7,73,55.7,66.1,55.7,64.8z"/>
		</g>
	</g>
	<path class="st0" d="M161.1,41.2h-9.4c-0.4,0-0.8,0.4-0.8,0.8v24.3c0,0-2.4,1.7-5.8,1.7c-3.4,0-4.3-1.5-4.3-4.9
		c0-3.3,0-21.2,0-21.2c0-0.4-0.3-0.8-0.8-0.8h-9.5c-0.4,0-0.8,0.4-0.8,0.8c0,0,0,12.9,0,22.8c0,9.8,5.5,12.3,13,12.3
		c6.2,0,11.2-3.4,11.2-3.4s0.2,1.8,0.3,2c0.1,0.2,0.4,0.4,0.7,0.4l6.1,0c0.4,0,0.8-0.4,0.8-0.8l0-33.2
		C161.9,41.6,161.5,41.2,161.1,41.2z"/>
	<path class="st0" d="M186.8,40.1c-5.3,0-9,2.4-9,2.4V25.7c0-0.4-0.3-0.8-0.8-0.8h-9.5c-0.4,0-0.8,0.4-0.8,0.8v49.5
		c0,0.4,0.4,0.8,0.8,0.8c0,0,6.6,0,6.6,0c0.3,0,0.5-0.2,0.7-0.4c0.2-0.3,0.4-2.3,0.4-2.3s3.9,3.7,11.2,3.7c8.6,0,13.6-4.4,13.6-19.6
		C200,42.1,192.1,40.1,186.8,40.1z M183.1,68c-3.3-0.1-5.5-1.6-5.5-1.6V50.7c0,0,2.2-1.3,4.9-1.6c3.4-0.3,6.6,0.7,6.6,8.8
		C189.1,66.5,187.6,68.1,183.1,68z"/>
	<path class="st0" d="M82.9,41.1h-7.1c0,0,0-9.4,0-9.4c0-0.4-0.2-0.5-0.6-0.5h-9.7c-0.4,0-0.6,0.2-0.6,0.5v9.7c0,0-4.8,1.2-5.2,1.3
		c-0.3,0.1-0.6,0.4-0.6,0.8v6.1c0,0.4,0.3,0.8,0.8,0.8h5c0,0,0,6.4,0,14.7c0,10.9,7.6,12,12.8,12c2.4,0,5.2-0.8,5.6-0.9
		c0.3-0.1,0.4-0.4,0.4-0.7l0-6.7c0-0.4-0.4-0.8-0.8-0.8c-0.4,0-1.5,0.2-2.6,0.2c-3.5,0-4.7-1.6-4.7-3.7c0-2.1,0-13.9,0-13.9h7.1
		c0.4,0,0.8-0.4,0.8-0.8v-7.6C83.7,41.5,83.3,41.1,82.9,41.1z"/>
</g>
</svg>
