<?xml version="1.0" encoding="utf-8"?>
<!-- Generator: Adobe Illustrator 22.0.0, SVG Export Plug-In . SVG Version: 6.00 Build 0)  -->
<svg version="1.1"
	 id="svg3363" xmlns:cc="http://creativecommons.org/ns#" xmlns:dc="http://purl.org/dc/elements/1.1/" xmlns:rdf="http://www.w3.org/1999/02/22-rdf-syntax-ns#" xmlns:svg="http://www.w3.org/2000/svg"
	 xmlns="http://www.w3.org/2000/svg" xmlns:xlink="http://www.w3.org/1999/xlink" x="0px" y="0px" viewBox="0 0 500 126.2"
	 style="enable-background:new 0 0 500 126.2;" xml:space="preserve">
<style type="text/css">
	.st0{fill:#FFFFFF;}
</style>
<g id="layer1" transform="translate(-29.048715,-393.1929)">
	<g id="XMLID_54_" transform="matrix(0.84037876,0,0,0.84037876,29.120071,393.34829)">
		<g id="XMLID_55_">
			<path id="XMLID_69_" class="st0" d="M110.4,43.1c-4.6-4.7-9.6-8.3-14.9-10.8c-5.3-2.5-12-3.7-19.7-3.7c-6.2,0-12.1,1.1-17.6,3.3
				s-10.3,5.3-14.4,9.3c-4.2,4-7.5,8.9-9.9,14.6c-2.4,5.7-3.6,12-3.6,19c0,7,1.2,13.3,3.6,19c2.4,5.7,5.7,10.5,9.9,14.5
				s9.1,7.2,14.6,9.4c5.5,2.2,11.5,3.3,17.8,3.3c6.7,0,12.6-0.9,17.6-2.8c5-1.9,9.3-4.5,12.9-7.7c2.4-2.2,4.6-4.9,6.5-8.1
				c1.9-3.3,3.4-6.9,4.5-10.9H75.4v-24h69c0.4,1.6,0.7,3.5,1,5.9s0.4,4.6,0.4,6.9c0,9.5-1.4,18.1-4.2,26s-7.1,14.8-12.7,20.9
				c-6.3,6.7-13.8,11.8-22.6,15.5c-8.8,3.7-18.9,5.5-30.2,5.5c-10.2,0-19.8-1.8-28.8-5.5s-16.9-8.8-23.7-15.3
				c-6.7-6.5-12-14.2-16-23.1S1.7,85.5,1.7,74.9c0-10.6,2-20.4,5.9-29.4s9.2-16.7,16-23.2c6.7-6.5,14.6-11.5,23.7-15.2
				S66,1.6,76.1,1.6c11.6,0,21.9,2,30.8,6s16.6,9.5,23.1,16.5L110.4,43.1z"/>
			<g id="XMLID_56_">
				<path id="XMLID_67_" class="st0" d="M287.7,107.5c0,12.3-4.5,22.2-13.5,29.7c-9.1,7.3-20.2,11-33.3,11
					c-11.6,0-21.9-3.4-30.8-10.2c-8.9-6.8-15-16.1-18.4-27.8l17.2-7.1c1.2,4.2,2.8,8,4.9,11.4c2.1,3.4,4.5,6.3,7.3,8.7
					c2.8,2.4,5.9,4.3,9.3,5.7c3.4,1.4,7,2.1,10.8,2.1c8.2,0,15-2.1,20.2-6.4c5.2-4.2,7.8-9.9,7.8-16.9c0-5.9-2.2-10.9-6.5-15.1
					c-4-4-11.6-8-22.7-11.8c-11.2-4-18.2-6.8-21-8.2c-14.9-7.6-22.3-18.7-22.3-33.5c0-10.3,4.1-19.1,12.3-26.4
					c8.4-7.3,18.6-11,30.8-11c10.7,0,20,2.7,27.8,8.2c7.8,5.4,13.1,12.1,15.7,20.2L266.6,37c-1.6-5.2-4.7-9.6-9.3-13
					c-4.6-3.5-10.3-5.2-16.9-5.2c-7.1,0-13,2-17.8,5.9c-4.8,3.6-7.2,8.4-7.2,14.2c0,4.8,1.9,9,5.7,12.5c4.2,3.5,13.3,7.7,27.2,12.5
					c14.2,4.8,24.4,10.8,30.5,17.8C284.7,88.7,287.7,97.3,287.7,107.5z"/>
				<path id="XMLID_65_" class="st0" d="M387.6,145h-17.2v-13.3h-0.8c-2.7,4.7-7,8.6-12.6,11.8c-5.7,3.1-11.6,4.7-17.7,4.7
					c-11.8,0-20.8-3.4-27.1-10.1c-6.3-6.7-9.5-16.3-9.5-28.7V49h18v59.2c0.4,15.7,8.3,23.5,23.7,23.5c7.2,0,13.2-2.9,18-8.7
					c4.8-5.8,7.2-12.8,7.2-20.9V49h18V145z"/>
				<path id="XMLID_62_" class="st0" d="M428.7,15.9c0,3.5-1.2,6.5-3.7,9s-5.5,3.7-9,3.7s-6.5-1.2-9-3.7s-3.7-5.5-3.7-9
					s1.2-6.5,3.7-9s5.5-3.7,9-3.7s6.5,1.2,9,3.7S428.7,12.4,428.7,15.9z M425,49v96h-18V49H425z"/>
				<path id="XMLID_60_" class="st0" d="M480.3,146.6c-7.8,0-14.3-2.4-19.5-7.2c-5.2-4.8-7.8-11.6-7.9-20.2V65.5H436V49h16.8V19.6
					h18V49h23.5v16.5h-23.5v47.8c0,6.4,1.2,10.7,3.7,13c2.5,2.3,5.3,3.4,8.4,3.4c1.4,0,2.8-0.2,4.2-0.5c1.4-0.3,2.6-0.8,3.8-1.3
					l5.7,16.1C492.1,145.7,486.6,146.6,480.3,146.6L480.3,146.6z"/>
				<path id="XMLID_57_" class="st0" d="M547.7,148.1c-14.1,0-25.7-4.8-34.9-14.5c-9.1-9.7-13.7-21.9-13.7-36.6
					c0-14.6,4.4-26.8,13.3-36.5c8.9-9.7,20.2-14.6,34.1-14.6c14.2,0,25.6,4.6,34,13.8s12.6,22.1,12.6,38.7l-0.2,2h-75.4
					c0.3,9.4,3.4,17,9.4,22.7c6,5.7,13.2,8.6,21.6,8.6c11.5,0,20.5-5.7,27-17.2l16.1,7.8c-4.3,8.1-10.3,14.4-17.9,19
					C566,145.8,557.3,148.1,547.7,148.1L547.7,148.1z M518.9,85.4H574c-0.5-6.7-3.2-12.2-8.1-16.6c-4.9-4.4-11.5-6.6-19.7-6.6
					c-6.8,0-12.6,2.1-17.5,6.3C523.7,72.8,520.5,78.4,518.9,85.4z"/>
			</g>
		</g>
	</g>
</g>
</svg>
