<?xml version="1.0" encoding="UTF-8" standalone="no"?>
<!-- Generator: Adobe Illustrator 17.1.0, SVG Export Plug-In . SVG Version: 6.00 Build 0)  -->

<svg
   xmlns:dc="http://purl.org/dc/elements/1.1/"
   xmlns:cc="http://creativecommons.org/ns#"
   xmlns:rdf="http://www.w3.org/1999/02/22-rdf-syntax-ns#"
   xmlns:svg="http://www.w3.org/2000/svg"
   xmlns="http://www.w3.org/2000/svg"
   xmlns:sodipodi="http://sodipodi.sourceforge.net/DTD/sodipodi-0.dtd"
   xmlns:inkscape="http://www.inkscape.org/namespaces/inkscape"
   version="1.1"
   id="Layer_1"
   x="0px"
   y="0px"
   viewBox="0 0 1000 250"
   enable-background="new 0 0 998 810"
   xml:space="preserve"
   sodipodi:docname="woo black.svg"
   inkscape:version="0.92.4 (5da689c313, 2019-01-14)"
   width="1000"
   height="250"><metadata
   id="metadata2147"><rdf:RDF><cc:Work
       rdf:about=""><dc:format>image/svg+xml</dc:format><dc:type
         rdf:resource="http://purl.org/dc/dcmitype/StillImage" /><dc:title></dc:title></cc:Work></rdf:RDF></metadata><defs
   id="defs2145" /><sodipodi:namedview
   pagecolor="#ffffff"
   bordercolor="#666666"
   borderopacity="1"
   objecttolerance="10"
   gridtolerance="10"
   guidetolerance="10"
   inkscape:pageopacity="0"
   inkscape:pageshadow="2"
   inkscape:window-width="3840"
   inkscape:window-height="2004"
   id="namedview2143"
   showgrid="false"
   inkscape:zoom="1.1654321"
   inkscape:cx="799.32484"
   inkscape:cy="337.94846"
   inkscape:window-x="-16"
   inkscape:window-y="-16"
   inkscape:window-maximized="1"
   inkscape:current-layer="Layer_1" />
<g
   id="g2140"
   transform="matrix(1.3848483,0,0,1.3848483,-191.10807,-430.29567)">
	<path
   d="m 160.7,331.2 h 199.1 c 12.6,0 22.8,10.2 22.8,22.8 v 76 c 0,12.6 -10.2,22.8 -22.8,22.8 h -71.4 l 9.8,24 -43.1,-24 H 160.8 C 148.2,452.8 138,442.6 138,430 v -76 c -0.1,-12.5 10.1,-22.8 22.7,-22.8 z"
   id="path2126"
   inkscape:connector-curvature="0"
   style="clip-rule:evenodd;fill:#9b5c8f;fill-rule:evenodd" />
	<path
   d="m 150.2,351.9 c 1.4,-1.9 3.5,-2.9 6.3,-3.1 5.1,-0.4 8,2 8.7,7.2 3.1,20.9 6.5,38.6 10.1,53.1 l 21.9,-41.7 c 2,-3.8 4.5,-5.8 7.5,-6 4.4,-0.3 7.1,2.5 8.2,8.4 2.5,13.3 5.7,24.6 9.5,34.2 2.6,-25.4 7,-43.7 13.2,-55 1.5,-2.8 3.7,-4.2 6.6,-4.4 2.3,-0.2 4.4,0.5 6.3,2 1.9,1.5 2.9,3.4 3.1,5.7 0.1,1.8 -0.2,3.3 -1,4.8 -3.9,7.2 -7.1,19.3 -9.7,36.1 -2.5,16.3 -3.4,29 -2.8,38.1 0.2,2.5 -0.2,4.7 -1.2,6.6 -1.2,2.2 -3,3.4 -5.3,3.6 -2.6,0.2 -5.3,-1 -7.9,-3.7 -9.3,-9.5 -16.7,-23.7 -22.1,-42.6 -6.5,12.8 -11.3,22.4 -14.4,28.8 -5.9,11.3 -10.9,17.1 -15.1,17.4 -2.7,0.2 -5,-2.1 -7,-6.9 -5.1,-13.1 -10.6,-38.4 -16.5,-75.9 -0.3,-2.6 0.2,-4.9 1.6,-6.7 z"
   id="path2128"
   inkscape:connector-curvature="0"
   style="fill:#ffffff" />
	<path
   d="m 365.2,367.6 c -3.6,-6.3 -8.9,-10.1 -16,-11.6 -1.9,-0.4 -3.7,-0.6 -5.4,-0.6 -9.6,0 -17.4,5 -23.5,15 -5.2,8.5 -7.8,17.9 -7.8,28.2 0,7.7 1.6,14.3 4.8,19.8 3.6,6.3 8.9,10.1 16,11.6 1.9,0.4 3.7,0.6 5.4,0.6 9.7,0 17.5,-5 23.5,-15 5.2,-8.6 7.8,-18 7.8,-28.3 0,-7.8 -1.6,-14.3 -4.8,-19.7 z m -12.6,27.7 c -1.4,6.6 -3.9,11.5 -7.6,14.8 -2.9,2.6 -5.6,3.7 -8.1,3.2 -2.4,-0.5 -4.4,-2.6 -5.9,-6.5 -1.2,-3.1 -1.8,-6.2 -1.8,-9.1 0,-2.5 0.2,-5 0.7,-7.3 0.9,-4.1 2.6,-8.1 5.3,-11.9 3.3,-4.9 6.8,-6.9 10.4,-6.2 2.4,0.5 4.4,2.6 5.9,6.5 1.2,3.1 1.8,6.2 1.8,9.1 0,2.6 -0.3,5.1 -0.7,7.4 z"
   id="path2130"
   inkscape:connector-curvature="0"
   style="fill:#ffffff" />
	<path
   d="m 302.5,367.6 c -3.6,-6.3 -9,-10.1 -16,-11.6 -1.9,-0.4 -3.7,-0.6 -5.4,-0.6 -9.6,0 -17.4,5 -23.5,15 -5.2,8.5 -7.8,17.9 -7.8,28.2 0,7.7 1.6,14.3 4.8,19.8 3.6,6.3 8.9,10.1 16,11.6 1.9,0.4 3.7,0.6 5.4,0.6 9.7,0 17.5,-5 23.5,-15 5.2,-8.6 7.8,-18 7.8,-28.3 0,-7.8 -1.6,-14.3 -4.8,-19.7 z m -12.6,27.7 c -1.4,6.6 -3.9,11.5 -7.6,14.8 -2.9,2.6 -5.6,3.7 -8.1,3.2 -2.4,-0.5 -4.4,-2.6 -5.9,-6.5 -1.2,-3.1 -1.8,-6.2 -1.8,-9.1 0,-2.5 0.2,-5 0.7,-7.3 0.9,-4.1 2.6,-8.1 5.3,-11.9 3.3,-4.9 6.8,-6.9 10.4,-6.2 2.4,0.5 4.4,2.6 5.9,6.5 1.2,3.1 1.8,6.2 1.8,9.1 0,2.6 -0.2,5.1 -0.7,7.4 z"
   id="path2132"
   inkscape:connector-curvature="0"
   style="fill:#ffffff" />
	<g
   id="g2138">
		<g
   id="g2136">
			<path
   d="m 407.9,366.7 c -6.7,6.6 -10,15 -10,25.2 0,10.9 3.3,19.8 9.9,26.5 6.6,6.7 15.2,10.1 25.9,10.1 3.1,0 6.6,-0.5 10.4,-1.6 v -16.2 c -3.5,1 -6.5,1.5 -9.1,1.5 -5.3,0 -9.5,-1.8 -12.7,-5.3 -3.2,-3.6 -4.8,-8.4 -4.8,-14.5 0,-5.7 1.6,-10.4 4.7,-14 3.2,-3.7 7.1,-5.5 11.9,-5.5 3.1,0 6.4,0.5 10,1.5 v -16.2 c -3.3,-0.9 -7,-1.3 -10.9,-1.3 -10.2,-0.1 -18.6,3.2 -25.3,9.8 z m 69.4,-9.9 c -9.2,0 -16.4,3.1 -21.6,9.2 -5.2,6.1 -7.7,14.7 -7.7,25.7 0,11.9 2.6,21 7.7,27.3 5.1,6.3 12.6,9.5 22.4,9.5 9.5,0 16.8,-3.2 21.9,-9.5 5.1,-6.3 7.7,-15.2 7.7,-26.6 0,-11.4 -2.6,-20.2 -7.8,-26.4 -5.3,-6.1 -12.8,-9.2 -22.6,-9.2 z m 7.9,52 c -1.8,2.8 -4.5,4.2 -7.9,4.2 -3.2,0 -5.6,-1.4 -7.3,-4.2 -1.7,-2.8 -2.5,-8.4 -2.5,-16.9 0,-13.1 3.3,-19.6 10,-19.6 7,0 10.6,6.6 10.6,19.9 -0.1,8.2 -1.1,13.8 -2.9,16.6 z m 71.9,-50.1 -3.6,15.3 c -0.9,3.9 -1.8,7.9 -2.6,12 l -2,10.6 C 547,386 544.4,373.4 541.1,358.7 h -23.2 l -8.7,68.1 h 17.4 l 4.7,-46.9 11.9,46.9 h 12.4 L 567,380 l 4.9,46.8 h 18.2 l -9.2,-68.1 z m 83.3,0 -3.6,15.3 c -0.9,3.9 -1.8,7.9 -2.6,12 l -2,10.6 c -1.9,-10.6 -4.5,-23.2 -7.8,-37.9 h -23.2 l -8.7,68.1 h 17.4 l 4.7,-46.9 11.9,46.9 h 12.4 l 11.3,-46.8 4.9,46.8 h 18.2 l -9.2,-68.1 z m 56.6,41.2 h 16.3 V 385.8 H 697 v -12.5 h 18.8 v -14.5 h -37.2 v 68.1 h 37.3 V 412.4 H 697 Z m 70.7,-10.8 c 1.9,-3.1 2.9,-6.3 2.9,-9.6 0,-6.4 -2.5,-11.5 -7.5,-15.2 -5,-3.7 -11.9,-5.6 -20.5,-5.6 h -21.4 v 68.1 h 18.4 v -31 h 0.3 l 14.9,31 h 19.4 l -14.7,-30.7 c 3.5,-1.6 6.3,-3.9 8.2,-7 z M 739.5,388 v -16.2 c 4.4,0.1 7.5,0.8 9.4,2.2 1.9,1.4 2.8,3.6 2.8,6.8 0,4.7 -4.1,7.1 -12.2,7.2 z m 41.9,-21.3 c -6.7,6.6 -10,15 -10,25.2 0,10.9 3.3,19.8 9.9,26.5 6.6,6.7 15.2,10.1 25.9,10.1 3.1,0 6.6,-0.5 10.4,-1.6 v -16.2 c -3.5,1 -6.5,1.5 -9.1,1.5 -5.3,0 -9.5,-1.8 -12.7,-5.3 -3.2,-3.6 -4.8,-8.4 -4.8,-14.5 0,-5.7 1.6,-10.4 4.7,-14 3.2,-3.7 7.1,-5.5 11.9,-5.5 3.1,0 6.4,0.5 10,1.5 v -16.2 c -3.3,-0.9 -7,-1.3 -10.9,-1.3 -10.1,-0.1 -18.6,3.2 -25.3,9.8 z m 59.7,45.5 v -12.4 h 16.3 V 385.7 H 841.1 V 373.2 H 860 v -14.5 h -37.2 v 68.1 h 37.3 v -14.5 h -19 z"
   id="path2134"
   inkscape:connector-curvature="0" />
		</g>
	</g>
</g>
</svg>